<svg width="46" height="46" viewBox="0 0 46 46" fill="none" xmlns="http://www.w3.org/2000/svg">
<path d="M23 0.799805C35.2489 0.799805 45.2002 10.7511 45.2002 23C45.2002 34.2284 36.839 43.5042 26.0059 44.9736L24.8711 45.1279L24.6436 45.1592V27.3643H30.251L30.7334 24.2451H24.6436V20.0273C24.6436 18.7557 24.8293 17.4833 25.4453 16.4082C26.0692 15.3195 27.272 14.501 28.7383 14.501H30.9854V11.9961C30.3394 11.9149 29.5897 11.8213 27.8789 11.8213C25.5612 11.8213 23.9329 12.412 22.8398 13.5488C21.7454 14.6873 21.0615 16.5241 21.0615 19.373V24.2471H15.8643V27.3662H21.0615V45.1348L20.8311 45.0996L19.6836 44.9268C9.00217 43.3222 0.799805 34.1199 0.799805 23C0.799805 10.7511 10.7511 0.799805 23 0.799805ZM33.3857 16.9014H28.7383C28.3803 16.9014 28.1556 16.9589 27.9873 17.0625C27.8177 17.167 27.6811 17.3333 27.5273 17.6016C27.2321 18.1168 27.0439 19.0062 27.0439 20.0273V21.8447H33.5322L33.4961 22.0752L32.334 29.5947L32.3086 29.7646H27.0439V42.2871C36.0269 40.4127 42.7998 32.5463 42.7998 23C42.7998 12.0529 33.9471 3.2002 23 3.2002C12.0529 3.2002 3.2002 12.0529 3.2002 23C3.2002 32.4404 9.82645 40.2346 18.6611 42.2207V29.7666H13.4639V21.8467H18.6611V19.373C18.6611 16.1403 19.4593 13.6012 21.1094 11.8848C22.7608 10.167 25.1417 9.4209 27.8789 9.4209C30.3605 9.4209 31.7393 9.61241 32.3447 9.69434L33.2119 9.81152L33.3857 9.83496V16.9014Z" fill="black" stroke="black" stroke-width="0.4"/>
</svg>
