<svg width="36" height="36" viewBox="0 0 36 36" fill="none" xmlns="http://www.w3.org/2000/svg">
<path d="M7.5 0C3.3755 0 0 3.3755 0 7.5V28.5C0 32.6245 3.3755 36 7.5 36H28.5C32.6245 36 36 32.6245 36 28.5V7.5C36 3.3755 32.6245 0 28.5 0H7.5ZM25.5 6H28.5C29.33 6 30 6.67 30 7.5C30 8.33 29.33 9 28.5 9H25.5C24.67 9 24 8.33 24 7.5C24 6.67 24.67 6 25.5 6ZM18 12C21.3315 12 24 14.6685 24 18C24 21.3315 21.3315 24 18 24C14.6685 24 12 21.3315 12 18C12 14.6685 14.6685 12 18 12ZM3 14H9.95312C9.3486 15.2077 9 16.5632 9 18C9 22.9528 13.0472 27 18 27C22.9528 27 27 22.9528 27 18C27 16.5632 26.6514 15.2077 26.0469 14H33V28.5C33 31.0035 31.0035 33 28.5 33H7.5C4.9965 33 3 31.0035 3 28.5V14Z" fill="black"/>
</svg>
