<svg width="36" height="36" viewBox="0 0 36 36" fill="none" xmlns="http://www.w3.org/2000/svg">
<path d="M5.63636 2C4.67194 2 3.74702 2.38312 3.06507 3.06507C2.38312 3.74702 2 4.67194 2 5.63636C2 6.60079 2.38312 7.52571 3.06507 8.20766C3.74702 8.88961 4.67194 9.27273 5.63636 9.27273C6.60079 9.27273 7.52571 8.88961 8.20766 8.20766C8.88961 7.52571 9.27273 6.60079 9.27273 5.63636C9.27273 4.67194 8.88961 3.74702 8.20766 3.06507C7.52571 2.38312 6.60079 2 5.63636 2ZM3.45455 12.1818C2.65018 12.1818 2 12.832 2 13.6364V32.5455C2 33.3498 2.65018 34 3.45455 34H7.81818C8.62255 34 9.27273 33.3498 9.27273 32.5455V13.6364C9.27273 12.832 8.62255 12.1818 7.81818 12.1818H3.45455ZM13.6364 12.1818C12.832 12.1818 12.1818 12.832 12.1818 13.6364V32.5455C12.1818 33.3498 12.832 34 13.6364 34H18C18.8044 34 19.4545 33.3498 19.4545 32.5455V21.6364C19.4545 19.6305 21.0851 18 23.0909 18C25.0967 18 26.7273 19.6305 26.7273 21.6364V32.5455C26.7273 33.3498 27.3775 34 28.1818 34H32.5455C33.3498 34 34 33.3498 34 32.5455V20.9091C34 16.096 30.0858 12.1818 25.2727 12.1818C23.0356 12.1818 21.0007 13.0342 19.4545 14.4233V13.6364C19.4545 12.832 18.8044 12.1818 18 12.1818H13.6364Z" stroke="black" stroke-width="2.3"/>
</svg>
