<svg width="40" height="40" viewBox="0 0 40 40" fill="none" xmlns="http://www.w3.org/2000/svg">
<path d="M20.0001 0.826172C30.6004 0.826172 39.174 9.39981 39.174 20.0001C39.174 30.6004 30.6004 39.174 20.0001 39.174C18.0611 39.174 16.1906 38.8838 14.4273 38.3501C15.2128 37.0369 16.2268 35.1599 16.6297 33.6101C16.869 32.6913 17.853 28.9433 17.853 28.9433C18.4925 30.1641 20.361 31.1973 22.3505 31.1973C28.2705 31.1973 32.5384 25.7529 32.5384 18.9872C32.5384 12.5008 27.2455 7.64903 20.4352 7.64903C11.9624 7.64903 7.46535 13.3356 7.46535 19.5275C7.46535 22.4071 8.99692 25.9917 11.4492 27.1332C11.8207 27.3061 12.0202 27.2312 12.1055 26.8711C12.1712 26.5978 12.5024 25.2654 12.6512 24.6455C12.6987 24.4477 12.6757 24.2768 12.5156 24.082C11.704 23.0975 11.0533 21.2891 11.0533 19.6024C11.0533 15.2724 14.3314 11.0819 19.9163 11.0819C24.7386 11.0819 28.1158 14.3692 28.1158 19.0692C28.1158 24.3792 25.4346 28.0588 21.9457 28.0588C20.0189 28.0588 18.5761 26.4648 19.0389 24.51C19.5938 22.177 20.6653 19.6595 20.6653 17.9743C20.6653 16.4673 19.8565 15.2102 18.1811 15.2102C16.2113 15.2102 14.6288 17.2468 14.6288 19.9769C14.6288 21.7142 15.2173 22.8908 15.2173 22.8908C15.2173 22.8908 13.2715 31.1178 12.9151 32.6489C12.558 34.179 12.6536 36.2398 12.801 37.7741C5.77591 34.9306 0.826172 28.0525 0.826172 20.0001C0.826172 9.39981 9.39981 0.826172 20.0001 0.826172Z" fill="black"/>
</svg>
