<svg width="87" height="87" viewBox="0 0 87 87" fill="none" xmlns="http://www.w3.org/2000/svg">
<path d="M43.533 86.232C19.981 86.232 0.653 67.032 0.653 43.352C0.653 19.8 19.981 0.471992 43.533 0.471992C67.213 0.471992 86.413 19.672 86.413 43.352C86.413 67.032 67.341 86.232 43.533 86.232ZM43.533 77.144C62.349 77.144 77.325 62.168 77.325 43.352C77.325 24.536 62.477 9.56 43.533 9.56C24.717 9.56 9.741 24.792 9.741 43.352C9.741 62.168 24.845 77.144 43.533 77.144ZM32.013 68.312L23.693 62.296L35.853 46.168L16.525 40.152L19.725 30.424L38.797 37.08L38.413 16.856H48.653L48.269 37.08L67.341 30.424L70.541 40.152L51.213 46.168L63.373 62.296L55.053 68.312L43.533 51.672L32.013 68.312Z" fill="black"/>
</svg>
