<svg width="158" height="158" viewBox="0 0 158 158" fill="none" xmlns="http://www.w3.org/2000/svg">
<g filter="url(#filter0_ig_770_473)">
<path d="M21.8844 130.908C4.29336 111.663 -3.1631 85.1745 3.3485 59.5619C6.5934 46.7977 12.795 35.4316 21.7299 25.8992C22.1718 25.4268 23.2105 24.0906 23.5938 23.7853C23.8127 23.6114 24.0792 23.6357 24.3093 23.398C24.5017 23.1979 24.5301 22.9185 24.6934 22.7432C24.8369 22.5889 25.2405 22.4073 25.4765 22.1896C26.4486 21.291 27.5315 20.0623 28.5313 19.2684C28.8469 19.0179 29.0798 18.934 29.4803 18.6015C31.4247 16.9896 33.6264 15.2899 35.7194 13.8933C35.9519 13.7387 36.4283 13.721 36.763 13.4947C45.8951 7.3229 57.2793 3.19501 68.2805 1.70633C101.839 -2.83737 134.781 14.6259 149.381 45.121C167.808 83.6108 151.638 129.46 113.585 148.118C82.7133 163.254 44.9992 156.199 21.8813 130.909L21.8844 130.908ZM135.713 28.3675C106.34 -5.00712 54.7494 -6.08506 23.9906 25.9685C-0.23942 51.2188 -3.9193 90.6707 15.5847 119.801C39.0042 154.782 87.4616 163.348 121.873 139.425C129.796 133.918 137.766 125.872 142.793 117.694C142.912 117.5 142.928 117.177 143.039 117.029C143.15 116.882 143.414 116.958 143.529 116.808C143.709 116.572 143.675 116.114 143.784 115.915C144.711 114.218 145.821 112.519 146.672 110.8C146.845 110.453 147.203 110.153 147.258 110.038C147.359 109.828 147.322 109.313 147.445 109.036C147.535 108.834 147.835 108.621 147.985 108.314C148.982 106.275 149.777 104.079 150.516 101.931C150.681 101.45 150.822 100.688 150.993 100.307C151.103 100.061 151.328 100.127 151.406 99.8187C151.505 99.4289 151.355 99.0598 151.417 98.8508C151.458 98.7155 151.672 98.5849 151.747 98.3755C151.919 97.9026 151.905 97.1436 152.049 96.6413C152.216 96.0596 152.672 95.3517 152.752 94.6334C152.788 94.3214 152.657 94.0171 152.723 93.7617C152.797 93.4738 153.168 93.3453 153.212 93.0942C153.252 92.8684 153.129 92.4547 153.178 92.079C153.238 91.6333 153.44 91.089 153.518 90.6357C154.516 84.8741 154.824 79.2276 154.476 73.4065C153.476 56.714 146.753 40.9121 135.712 28.3659L135.713 28.3675Z" fill="#0037AD"/>
<path d="M81.8576 21.3107C111.633 22.5153 136.042 46.8567 137.458 76.4978C139.327 115.645 103.73 145.315 65.5219 136.373C39.8902 130.374 21.1257 107.136 20.7326 80.8102C20.225 46.791 47.9185 19.9389 81.8575 21.3122L81.8576 21.3107ZM83.4878 22.1191C38.4991 18.824 6.92223 66.1788 28.0186 106.395C47.6679 143.852 100.019 148.072 125.354 114.179C152.589 77.7441 128.659 25.4273 83.4878 22.1191Z" fill="#0037AD"/>
<path d="M145.24 55.2145C144.064 56.2098 142.839 57.2042 141.619 58.1462C141.501 58.2363 141.37 58.2257 141.405 58.447L147.514 58.4294C147.645 58.5001 148.573 60.9579 148.529 61.0945C148.482 61.2399 148.11 61.3894 147.958 61.2944C147.718 61.1456 147.649 60.3883 147.343 60.4362L141.481 62.6191C141.078 62.8776 142.063 63.9222 141.035 63.9409C140.897 63.8967 140.672 63.2339 140.602 63.052C140.44 62.6337 139.948 61.3876 139.892 61.0365C139.871 60.9144 139.818 60.8092 139.92 60.6983C140.526 60.2119 140.717 60.9247 140.836 61.442L146.761 59.3831L147.002 59.1192L139.615 59.1868C139.43 59.1057 139.325 58.7553 139.36 58.5667C139.436 58.1615 143.942 54.7582 144.631 54.188C144.73 54.107 145.174 53.7764 145.066 53.6563L139.124 55.8344L139.018 56.0293L139.229 56.9773C139.044 57.1764 138.693 57.3653 138.547 57.0583C138.422 56.7937 137.643 54.5407 137.71 54.4195C138.322 53.8748 138.497 54.5306 138.635 55.0524L144.522 52.9573C145.397 52.6432 144.087 51.8092 145.181 51.523C145.324 51.5449 146.151 54.1137 146.148 54.2611C146.142 54.6795 145.771 54.6679 145.526 54.8743C145.405 54.9776 145.344 55.1249 145.242 55.2117L145.24 55.2145Z" fill="#0037AD"/>
<path d="M22.6676 35.6109C22.5974 35.4712 22.7192 35.3439 22.7869 35.2318C22.9314 34.9902 24.704 33 24.8558 32.9865L25.2822 33.4063L24.8463 34.2182L26.7577 35.8461C26.9059 35.8595 26.9597 35.7719 27.0547 35.6966C27.2977 35.5051 28.8486 33.7413 29.0229 33.4659C29.1022 33.3412 29.2444 33.1477 29.1746 33.002L27.3094 31.4938C26.9764 31.3586 26.7252 31.9352 26.4879 31.9614L26.0226 31.6515C26.0024 31.5083 27.6702 29.6408 27.8957 29.4418C28.1519 29.2167 28.6053 29.0903 28.6681 29.5127C28.7116 29.7979 28.0172 30.2034 28.1956 30.5371C28.2585 30.6551 29.9511 32.0214 30.2307 32.2592C30.6162 32.5854 32.7657 34.4418 32.9949 34.5173C33.3313 34.6286 33.6193 34.0821 33.9143 33.9566L34.3707 34.3592C34.032 34.7284 32.4874 36.7534 32.1127 36.7249C31.2872 36.6589 32.2699 35.7205 32.2089 35.5981L29.8608 33.7168L27.4575 36.3918C27.4714 36.5375 29.5219 38.2368 29.6685 38.2892C29.9485 38.39 30.8156 37.3323 30.9058 38.1652C30.9259 38.3476 28.9243 40.5997 28.7523 40.601C28.0933 40.6026 28.5584 39.7071 28.8482 39.5148L28.8054 39.3336L23.8618 35.2725L23.0281 35.8552L22.6661 35.6108L22.6676 35.6109Z" fill="#0037AD"/>
<path d="M89.502 142.265L90.3291 148.873L91.2719 148.849L91.4762 149.425L88.2111 149.79L88.1661 149.166L88.9463 149.1L88.5282 145.957L85.0044 146.315L85.3257 149.368L86.3048 149.475L86.3897 149.959C86.3326 150.107 86.2109 150.084 86.0954 150.114C85.248 150.34 83.9841 150.249 83.0868 150.44L83.0288 149.769L84.0576 149.556L83.1685 143.309C82.9881 142.68 81.7058 143.498 82.0718 142.448L85.224 142.08L85.3519 142.611L84.4882 142.89L84.8867 145.619L88.469 145.227L88.1307 142.556L87.1111 142.41L87.1455 141.923C87.1839 141.801 87.3728 141.815 87.4723 141.795C87.8 141.733 89.9886 141.478 90.1738 141.52C90.2982 141.548 90.3988 141.591 90.4331 141.728L90.3618 142.111L89.5004 142.266L89.502 142.265Z" fill="#0037AD"/>
<path d="M34.3169 134.016C34.2717 133.977 33.4386 134.214 33.2222 133.752C33.3639 133.469 33.9794 133.466 34.0265 133.405C34.1139 133.293 34.098 132.323 34.1608 132.028C34.3883 130.955 35.6609 129.202 36.5814 128.609C38.0967 127.63 39.6989 127.939 40.9914 129.124C41.285 129.393 41.8342 130.294 41.9682 130.391C42.1434 130.519 42.8497 130.228 43.061 130.81L42.2494 131.21C42.5561 133.088 40.6254 135.887 38.8488 136.42C37.2066 136.912 35.5203 135.881 34.5792 134.582C34.476 134.44 34.3411 134.034 34.3186 134.014L34.3169 134.016ZM35.2179 132.837L41.138 130.76C40.9601 129.798 39.8188 128.947 38.8626 128.951C37.2727 128.958 35.5884 131.428 35.2179 132.837ZM41.1896 131.623L35.4537 133.546L35.2527 133.797C35.4898 134.83 36.4687 135.618 37.5398 135.629C39.1248 135.646 40.8037 132.998 41.1895 131.624L41.1896 131.623Z" fill="#0037AD"/>
<path d="M122.777 127.944C123.237 128.485 126.628 132.11 126.556 132.392C126.25 132.631 125.845 133.193 125.446 133.16L117.674 130.512L121.709 135.188C121.996 135.366 122.559 134.547 122.913 134.668C123.144 134.745 123.3 135.113 123.063 135.296C122.59 135.431 121.13 136.999 120.83 136.976C120.655 136.962 120.451 136.723 120.465 136.548C120.492 136.222 121.187 136.081 121.047 135.749L117.017 131.015C116.597 130.592 116.171 131.599 115.766 131.251L115.596 130.967C115.61 130.794 117.356 129.25 117.715 129.262L124.813 131.647L121.304 127.465C120.943 127.227 120.545 127.837 120.289 127.884C119.974 127.94 119.67 127.5 119.96 127.243C120.417 127.114 121.78 125.644 122.072 125.666C122.257 125.68 122.433 125.906 122.438 126.094C122.414 126.388 121.883 126.452 121.941 126.817C121.979 127.052 122.58 127.713 122.778 127.945L122.777 127.944Z" fill="#0037AD"/>
<path d="M50.6102 139.604C50.8301 140.04 51.3214 140.327 51.4426 140.829C51.693 141.864 51.0301 143.234 49.9443 143.424C48.4945 143.679 46.3148 142.388 45.0224 141.693C44.8417 141.595 44.2019 141.3 44.1676 141.163C43.923 140.225 45.3121 141.068 45.4132 140.992L48.0939 135.226C48.2647 134.806 47.4639 134.733 47.3389 134.485L47.4553 133.935C47.6128 133.907 47.7532 133.962 47.8966 134.017C48.6077 134.288 51.9618 136.014 52.3869 136.469C53.651 137.819 52.4883 140.084 50.6118 139.602L50.6102 139.604ZM48.2434 138.164C49.3144 138.536 50.5215 139.732 51.374 138.349C52.3703 136.733 50.6071 136.192 49.4123 135.672L48.2419 138.164L48.2434 138.164ZM49.6864 142.2C50.1313 141.803 50.4327 140.881 50.1989 140.317C49.9348 139.678 48.4935 138.958 47.8422 138.864C47.6164 139.236 46.4465 141.534 46.6083 141.755C47.5217 142.097 48.764 143.024 49.6864 142.2Z" fill="#0037AD"/>
<path d="M71.7315 141.856L75.2535 148.686L75.6318 143.24C75.5685 142.635 73.9316 143.212 74.7007 142.136C74.8377 142.045 74.9409 142.225 74.9784 142.228L77.3367 142.416L77.481 142.61L77.4124 142.996L76.4213 143.209L75.9608 150.438L74.566 150.212L71.134 143.199L70.7998 142.91L70.4394 149.02L70.5938 149.201L71.6464 149.35L71.7013 149.983L68.6134 149.736C68.37 149.555 68.6242 149.318 68.6159 149.064L69.4387 149.107L69.6442 148.857C69.6314 146.962 70.1892 144.757 70.1264 142.903C70.0952 142.01 68.7563 142.745 69.0904 141.641L71.7289 141.852L71.7315 141.856Z" fill="#0037AD"/>
<path d="M21.5019 44.3423C22.2295 43.7858 22.5406 43.4973 23.4568 43.8809C24.2052 44.1954 24.9538 45.1668 25.5494 44.092L26.1172 44.4402C25.8016 45.087 25.315 46.0997 24.4274 45.8856C23.4954 45.6604 22.5526 44.4218 21.6055 45.1401C21.3503 45.3337 20.3898 46.8976 20.4992 47.0766L22.9225 48.4125L23.5014 47.603L24.0439 47.7202C24.2059 47.9953 22.6581 50.2476 22.4611 50.6944L21.9157 50.5754L22.2043 49.6433L22.1107 49.4188L16.4282 46.4135L15.9422 47.1551L15.2965 47.0086C16.0866 45.7082 16.7642 44.1548 17.5975 42.8986C18.4735 41.5795 19.701 41.2377 20.9717 42.3367C21.6995 42.966 21.6164 43.4384 21.5002 44.3452L21.5019 44.3423ZM18.7532 43.0211C18.0544 43.143 17.4465 44.5785 17.1506 45.168C17.1727 45.325 19.5174 46.6259 19.7802 46.5641C20.2914 45.9978 20.9302 44.949 20.7846 44.1674C20.639 43.3859 19.4872 42.893 18.7547 43.0212L18.7532 43.0211Z" fill="#0037AD"/>
<path d="M62.3458 14.0731L62.3834 14.3006C64.3147 14.0212 63.9138 16.0924 64.5271 16.8135C64.829 17.1676 65.7998 16.4919 65.5243 17.4868C63.0638 18.6325 63.4102 17.0541 62.7182 15.5825C62.1461 14.3645 60.5635 15.0726 59.6465 15.4905L60.4471 18.0933L61.5065 17.9686L61.7572 18.4723C61.7045 18.6413 60.9529 18.8193 60.7443 18.8824C60.3811 18.9935 58.7102 19.4867 58.4881 19.3981C58.2864 19.3172 58.2906 19.0764 58.3541 18.9052L59.1101 18.5589L59.1681 18.1914C58.4044 16.485 58.1447 14.3398 57.4269 12.6627C57.0875 11.8717 56.8624 12.4428 56.1678 12.324L56.0729 11.8327C57.4932 11.4371 59.0743 10.7861 60.5081 10.5045C61.0489 10.3986 61.407 10.3142 61.9608 10.4775C63.3618 10.8909 63.9979 13.5514 62.3458 14.0731ZM58.58 11.744L59.5215 14.7347C60.9499 14.2764 62.7438 14.0176 61.832 12.0508C61.1427 10.5643 59.7366 11.5547 58.58 11.744Z" fill="#0037AD"/>
<path d="M32.4132 122.676C32.2845 122.06 31.564 121.831 32.3529 121.319L34.2805 123.442L34.3494 123.768L33.9428 124.045C33.7346 124.027 33.4786 123.589 33.2488 123.483C32.9667 123.353 29.6591 123.458 29.5392 123.601C29.4602 124.607 28.3111 127.304 28.5383 128.12C28.5945 128.324 29.3996 129.191 28.6541 129.257C28.4628 129.273 27.382 127.855 27.189 127.609C27.2299 126.702 28.4963 123.8 28.251 123.134C28.194 122.981 27.7682 122.478 27.5654 122.563C27.0194 122.792 26.1839 124.075 25.5468 124.387L25.9877 125.379L25.65 125.736C25.5066 125.776 25.4376 125.695 25.3384 125.617C25.1541 125.469 23.3529 123.388 23.3381 123.233L23.7586 122.802L24.4136 123.379L24.673 123.359L29.395 119.105L28.8483 118.154L29.2596 117.802C29.4298 117.785 31.4826 120.227 31.4691 120.397C31.3918 121.364 30.3997 119.986 30.1256 120.17C29.8487 120.73 28.5878 121.375 28.3558 121.787C28.2047 122.055 28.631 122.588 28.8426 122.733C29.46 123.157 31.5992 122.635 32.4134 122.673L32.4132 122.676Z" fill="#0037AD"/>
<path d="M129.819 29.0774L130.131 29.1972C132.37 31.8729 135.771 34.0749 132.126 37.4401C129.011 40.3144 127.25 38.2781 125.075 35.8034C124.728 35.4096 123.554 34.386 124.531 34.1719L125.334 34.7514C126.16 33.8863 127.098 33.1312 127.959 32.305C128.235 32.0393 129.92 30.4851 129.966 30.3517C130.088 30.0029 129.538 29.7856 129.493 29.5229L129.821 29.076L129.819 29.0774ZM130.989 31.3119L126.196 35.7711L126.184 36.0006C127.171 36.86 127.464 37.7679 128.985 37.6816C130.032 37.6222 131.397 36.3708 131.981 35.5512C133.287 33.7196 132.425 32.608 130.989 31.3119Z" fill="#0037AD"/>
<path d="M110.442 15.8751L109.351 15.5723L108.237 18.1335C108.664 18.2806 109.081 18.6997 109.552 18.5792C109.757 18.5277 112.234 17.29 112.332 17.1698C112.396 17.092 112.473 16.9776 112.337 16.9366C111.89 16.7758 111.32 16.4214 111.869 16.0057L114.53 17.2973C114.415 18.3503 113.764 17.4018 113.136 17.6228L110.075 19.0926L110.707 23.5577C110.748 23.805 111.539 24.0311 111.586 24.1222C111.661 24.2653 111.57 24.6031 111.374 24.6476C111.177 24.6922 109.643 23.9804 109.536 23.8302C109.173 23.316 109.165 20.2944 108.823 19.4173C108.682 19.0535 108.239 18.8388 107.851 18.8514L106.626 21.5137C106.63 21.7084 107.448 21.7723 107.459 22.2583C107.468 22.6221 107.256 22.664 106.947 22.5865C106.755 22.538 104.269 21.3418 104.253 21.1898L104.428 20.6027L105.521 20.9055L108.105 15.2753C108.3 14.7395 107.637 14.697 107.34 14.4005L107.552 13.8946L110.498 15.2693C110.7 15.4422 110.52 15.6749 110.438 15.8747L110.442 15.8751Z" fill="#0037AD"/>
<path d="M142.347 101.77L142.62 101.545L144.02 99.1964C143.44 101.119 142.199 102.894 142.22 104.965C142.289 105.253 143.601 105.286 143.934 105.292C144.551 105.303 145.246 105.193 145.859 105.108L146.011 105.394C145.492 105.82 144.925 106.18 144.332 106.496C142.178 107.642 140.93 107.338 139.544 109.715C139.484 109.816 139.227 110.699 139.055 110.431C138.874 109.226 139.304 108.201 139.532 107.052C138.614 105.558 137.82 103.974 137.22 102.323L137.502 102.29C138.013 102.852 139.877 104.966 140.563 104.913C141.588 103.079 142.068 100.997 142.571 98.969L142.603 100.049L142.347 101.773L142.347 101.77Z" fill="#0037AD"/>
<path d="M13.6077 91.1081L18.2263 93.7661L18.153 93.9848C17.5612 93.9374 14.3576 93.0816 14.0856 93.447C14.0326 95.6561 15.1899 97.6637 15.5994 99.7651L14.2266 97.1708L14.4324 100.235C14.092 100.268 14.2626 100.133 14.2166 99.9543C13.8713 98.5782 13.7565 96.9403 13.275 95.6272C13.1352 95.2438 12.7399 94.248 12.3001 94.3544C11.4085 94.5679 10.1321 95.8414 9.32112 96.328C9.42307 95.1097 10.1813 93.9996 10.8115 92.9833C11.2529 92.2713 11.8512 91.7858 12.0973 90.9331C12.3745 89.9744 12.2056 89.0509 12.1277 88.0834C13.0025 88.8524 13.2645 90.0456 13.6076 91.1096L13.6077 91.1081Z" fill="#0037AD"/>
<path d="M138.924 39.9575L142.102 45.4519C141.762 45.589 140.466 46.6319 140.216 46.4461C140.119 46.3736 139.892 45.914 139.943 45.7629C140.047 45.4594 140.979 45.1075 140.906 44.7114L139.469 42.3772L137.161 43.8394L138.73 46.5337C138.579 46.6784 138.178 47.0606 137.974 46.8921C137.595 46.5816 136.713 44.3535 136.485 44.2795L133.868 45.8752C133.78 46.0022 135.273 48.463 135.416 48.5483C135.713 48.7258 136.351 48.0355 136.762 48.0246C137.981 48.9689 136.098 49.3878 135.47 49.9388L132.049 44.321L132.541 43.9746L133.028 44.666C133.124 44.7324 133.253 44.6885 133.355 44.6604C133.825 44.5278 135.856 43.1128 136.43 42.7413C136.742 42.5387 138.585 41.4054 138.657 41.2937C138.838 41.0128 138.26 40.5071 138.331 40.2069L138.922 39.9619L138.924 39.9575Z" fill="#0037AD"/>
<path d="M47.7204 19.0974C48.0932 19.3563 50.3594 17.5291 50.7293 17.7877L51.0213 18.5855L48.2179 19.7203L49.6469 22.5361L52.4581 21.1894L51.9375 19.7436L52.6158 19.4061C52.8755 19.3831 53.6731 21.0048 53.7313 21.3334L47.7531 24.1941L47.7286 23.6332L48.3815 23.1611L45.358 17.3958L44.3667 17.7052L44.1266 17.0879L49.7253 14.3339C49.828 14.3512 50.6254 15.8056 50.691 16.0037C50.8031 16.3366 50.2064 16.5194 49.9417 16.5299L49.0741 15.4058L46.539 16.7128L47.7202 19.1004L47.7204 19.0974Z" fill="#0037AD"/>
<path d="M14.5364 53.7218L14.1687 54.5874L12.7992 54.3844L11.8945 57.1175L14.6499 57.9029L15.6176 54.9654L16.3262 55.2873L15.198 58.1757L18.2806 59.0927C18.3995 58.2856 19.1285 57.1642 19.1879 56.4021C19.2353 55.7911 18.2415 55.9241 17.9568 55.4689L18.1937 54.6938L20.2822 55.3144L18.0996 61.5266L17.5532 61.4016C17.4023 61.1198 17.9817 60.5303 17.5503 60.306C15.7297 59.9178 13.819 58.8836 12.0327 58.5193C10.7984 58.2669 11.5167 59.6924 10.5332 59.1692L12.4853 53.2188C12.7345 52.9494 14.1137 53.7287 14.5363 53.7233L14.5364 53.7218Z" fill="#0037AD"/>
<path d="M64.0787 140.58L63.7085 142.569C62.2747 142.568 62.9596 141.922 62.9191 140.939L60.06 140.13L59.4412 142.796L62.4522 143.76L62.2657 144.376C62.2 144.463 62.1406 144.47 62.0401 144.464C61.4923 144.432 59.6036 143.368 59.2086 143.612L58.4343 146.393C58.4055 146.546 58.4818 146.591 58.6004 146.654C59.2906 147.018 60.7368 147.091 61.5053 147.474L61.9635 146.044L62.8491 146.227L62.331 148.444L55.929 146.573L56.0997 146.041L57.2052 146.113L58.846 139.699L57.9127 139.284L58.1242 138.788L64.0757 140.58L64.0787 140.58Z" fill="#0037AD"/>
<path d="M121.209 30.9878L121.09 31.3685L120.704 31.4823L118.283 29.7142L118.606 29.0861C118.836 29.1753 119.365 29.748 119.592 29.4889C119.819 29.2299 120.387 27.3768 120.181 27.1072C120.111 27.0158 118.438 25.7836 118.329 25.7433C118.266 25.7202 118.218 25.6666 118.144 25.7058C117.992 25.7374 116.431 26.8947 116.358 27.0486C116.197 27.3913 116.937 27.5966 117.056 27.8849L116.729 28.3484L114.469 26.6353L114.783 26.1768L115.588 26.5199L121.762 22.2029C122.075 22.3123 122.965 22.855 122.986 23.1566L120.725 30.2168C120.622 30.5958 120.89 30.8493 121.208 30.9877L121.209 30.9878ZM121.62 23.216C121.553 23.1263 120.668 23.7773 120.55 23.8627C119.973 24.2746 119.411 24.7434 118.865 25.197C119.105 25.4121 120.483 26.5634 120.685 26.4153L121.62 23.216Z" fill="#0037AD"/>
<path d="M82.4839 13.7626L83.4937 13.8434C83.3882 15.3507 83.562 15.8738 85.193 15.8988C86.2939 15.916 87.2357 15 86.6536 13.9259C85.8626 12.4659 82.2666 12.8217 82.806 9.90419C83.1789 7.88191 85.7334 7.76528 87.1817 8.71732L87.2152 8.39305L88.1076 8.45236L87.9102 10.9211L87.0112 10.8492C87.2761 9.49779 86.5305 8.82796 85.1987 8.90828C84.1001 8.97561 83.5618 10.2765 84.4048 11.0295C85.5165 12.0239 87.9249 12.0764 88.0928 13.9551C88.3809 17.1964 84.1119 17.1804 82.3374 15.6132L82.4855 13.7613L82.4839 13.7626Z" fill="#0037AD"/>
<path d="M102.311 145.873C102.551 145.588 101.233 144.014 100.947 143.764L98.4726 144.504L98.3492 144.708L98.497 147.046L99.5703 146.805L99.8265 147.316C99.7902 147.43 97.8439 148.047 97.5693 148.107C96.9985 148.23 96.8417 148.287 96.8766 147.605L97.5441 147.404L97.6449 139.544C98.0591 139.475 98.7426 139.036 99.1163 139.246C99.2505 139.322 100.036 140.305 100.206 140.519C101.407 142.03 102.473 143.688 103.666 145.212C104.045 145.513 105.047 144.781 104.702 145.794C103.897 145.932 102.571 146.676 101.829 146.73C101.69 146.74 101.606 146.751 101.521 146.616C101.32 146.067 101.901 145.975 102.312 145.875L102.311 145.873ZM100.503 143.139C99.8532 142.174 99.1632 141.204 98.3523 140.371L98.3675 143.651C98.4674 143.815 98.5115 143.754 98.649 143.732C99.211 143.643 99.9124 143.224 100.501 143.139L100.503 143.139Z" fill="#0037AD"/>
<path d="M100.208 19.5781L97.0027 18.7628L97.1575 18.1469L98.1697 18.2926C98.2862 18.1935 98.2049 16.0791 98.0368 15.8442L95.4895 15.077L94.3156 17.0292C94.2876 17.4352 95.0927 17.3429 95.2381 17.5986C95.3372 17.7738 95.2844 18.095 95.0587 18.1448C94.9375 18.1712 92.9169 17.6059 92.6461 17.5043C91.8524 17.2103 92.7544 16.5834 93.4081 16.8752L97.5519 10.5004C97.9339 10.5686 98.8662 10.6582 99.0088 11.0433L99.5257 18.5502L100.328 19.0242L100.21 19.5767L100.208 19.5781ZM97.7986 11.6004C97.635 11.4216 97.6024 11.6405 97.5369 11.7241C97.2643 12.079 96.8413 12.7865 96.596 13.1947C96.4707 13.4047 95.8414 14.3352 95.9847 14.5034L97.979 15.0019C98.1058 14.8869 97.9122 11.727 97.7986 11.6004Z" fill="#0037AD"/>
<path d="M41.1311 28.8264C41.0033 28.9533 40.2537 29.4463 40.0914 29.4017L33.6167 25.2347C33.1296 25.5558 32.9831 25.5969 32.6521 25.0777L35.3343 23.1015L35.5612 23.3381C35.7575 23.8631 34.7902 24.2302 34.9038 24.4125L40.0556 27.8695L40.1541 27.5806L38.2177 21.8525C38.0812 21.7301 37.534 22.2951 37.3055 22.3235C36.8714 22.3777 36.6716 22.0287 36.9808 21.6888L38.945 20.3377L39.2964 20.7515L38.9438 21.4842C39.5059 23.4487 40.3626 25.3885 40.9163 27.3448C41.0163 27.6978 41.3719 28.5865 41.1311 28.8264Z" fill="#0037AD"/>
<path d="M105.165 137.395L104.968 137.004C104.978 136.837 107.729 135.422 107.932 135.502L108.142 135.963L107.241 136.623L111.982 140.897L111.007 134.722C110.582 134.632 110.237 135.099 109.828 134.95C109.072 134.676 110.03 134.264 110.32 134.1C110.651 133.913 111.299 133.528 111.613 133.407C112.041 133.242 112.129 133.406 112.189 133.84L111.737 134.36L112.861 141.878C112.545 142.06 111.956 142.559 111.601 142.431L106.049 137.31L105.163 137.393L105.165 137.395Z" fill="#0037AD"/>
<path d="M76.7298 7.99443L76.7459 8.56675C76.3715 8.74172 76.0561 8.78279 75.9801 9.26186L74.3015 16.1292C74.0949 16.4878 73.2489 16.3945 72.8577 16.3843L69.5383 9.3584C68.8847 9.48089 68.5143 8.73861 69.1693 8.63731C70.0976 8.49309 71.2147 8.51463 72.1638 8.43082L72.1974 8.99098L71.0947 9.2418L71.0908 9.49762L73.7867 15.0996L75.1897 8.88827L74.1749 8.86889L74.0025 8.23435L76.7282 7.99581L76.7298 7.99443Z" fill="#0037AD"/>
<path d="M150.249 70.7859L149.675 70.8003L149.42 69.8156L142.905 70.8871L142.914 71.9998L142.234 72.0644L141.824 68.83L142.113 68.6586C142.746 68.6506 142.381 69.5766 142.815 69.6218L149.146 68.4422L149.172 67.498C149.287 67.2285 149.749 67.2745 149.805 67.5547L150.248 70.7843L150.249 70.7859Z" fill="#0037AD"/>
<path d="M66.7425 81.5729C66.4434 81.7871 66.0463 81.7945 65.6939 81.7512C64.5038 81.6048 63.012 81.1224 61.7898 80.8876C57.9183 80.144 53.6476 79.1501 49.776 78.6717C48.6786 78.5357 47.7557 78.3293 47.4929 79.6734C47.1606 81.378 47.1022 83.5218 46.9359 85.2804C46.8546 86.1462 46.3247 87.493 47.6901 87.7664C48.9694 88.0224 50.6318 87.9746 51.9555 88.2221C58.0731 88.5592 64.1909 88.3463 70.2717 87.6152C71.7013 87.4433 73.446 86.9892 74.8007 86.9062C75.6235 86.856 76.0341 87.6421 75.9609 88.3881C75.7098 90.943 75.193 93.5202 74.9901 96.0955C74.6711 97.0297 73.8801 96.8896 73.0716 96.7994C72.1121 96.6925 71.0286 96.4401 70.0683 96.3241C59.9395 95.1058 49.7609 94.132 39.5515 93.4316C38.0459 93.3277 36.4456 93.4468 34.9375 93.1861C34.347 93.0846 33.9742 92.7686 33.9502 92.1444C33.8672 89.9395 34.4204 87.3968 34.6262 85.1999C35.4 76.9193 35.9389 68.296 37.0802 60.096C37.2637 58.7818 36.8972 57.6903 38.6832 57.6809C50.8774 58.5266 63.0668 59.414 75.1498 61.0478C76.2342 61.1948 77.6913 61.3204 78.7133 61.5694C79.9942 61.8812 79.4601 62.9972 79.3843 63.8137C79.2493 65.2569 79.1818 67.1379 78.9019 68.5257C78.5999 70.0203 77.2995 69.4055 76.2951 69.2755C71.1447 68.6105 66.0175 67.9383 60.8604 67.3571C57.4002 67.3907 53.3465 66.3614 49.9602 66.4884C49.6109 66.5011 49.2105 66.6815 49.0468 67.012C48.9247 67.2568 48.7563 68.3447 48.7082 68.701C48.5909 69.5836 48.5904 70.5131 48.5011 71.404C48.4117 72.2948 47.7605 73.65 48.8281 74.2536C50.6737 74.46 52.5378 74.6437 54.3927 74.7544C58.874 75.0194 63.4175 74.9775 67.9122 75.1486C68.9976 75.1902 71.2398 75.0953 70.3813 76.8181L66.7457 81.5717L66.7425 81.5729Z" fill="#0037AD"/>
<path d="M97.0769 81.7509C97.3153 82.0307 98.8664 81.9995 99.3385 82.0734C105.825 83.0788 112.505 85.6878 116.406 91.1752C118.191 93.6865 119.456 95.9196 121.605 98.252C122.024 98.7074 123.507 99.8641 123.566 100.354C123.678 101.284 122.86 101.619 122.074 101.624C120.161 101.634 118.028 101.386 116.114 101.26C113.714 101.103 111.273 100.908 108.902 100.593C103.851 94.7063 99.2357 88.449 94.6355 82.2051C94.3678 81.7814 94.474 81.2836 94.7888 80.911C99.6708 76.6925 104.452 72.3575 109.168 67.954C109.727 67.4322 111.375 65.6038 111.907 65.3992C112.161 65.3005 112.266 65.2848 112.539 65.281C114.579 65.2468 117.074 65.6934 119.174 65.8222C121.033 65.9347 122.924 66.0453 124.797 66.1589C125.597 66.2078 127.213 65.8489 127.609 66.7891C127.919 67.5265 127.504 67.9228 127.038 68.4203C125.03 70.5575 122.528 72.7996 120.371 74.836C119.04 76.0931 117.687 77.3348 116.328 78.5611C115.459 78.9572 113.226 78.4938 112.165 78.4647C108.012 78.3525 103.573 78.6017 99.635 79.9682C99.2008 80.1188 97.4122 80.7818 97.1588 80.9906C96.9345 81.1745 96.8917 81.5403 97.0736 81.7537L97.0769 81.7509Z" fill="#0037AD"/>
<path d="M84.3274 62.3754L94.8183 63.6484C95.1999 63.7407 95.4932 64.0896 95.5841 64.4614C94.6576 74.4444 92.9565 84.3459 91.7491 94.2763C91.6136 95.3864 91.6925 97.5292 91.2213 98.4437C90.7499 99.3613 89.2673 98.7816 88.5226 98.704C86.7818 98.5241 85.0925 98.3046 83.3695 98.0719C82.2746 97.9241 80.9836 97.9082 79.9095 97.6701C78.3907 97.3347 79.0816 95.7281 79.1767 94.7473C80.1015 85.2765 81.9034 75.924 83.1309 66.4954C83.2324 65.7171 83.2018 64.9116 83.3166 64.1358C83.4314 63.36 83.4807 62.5744 84.3274 62.3754Z" fill="#0037AD"/>
</g>
<defs>
<filter id="filter0_ig_770_473" x="0.020752" y="-0.00744629" width="157.981" height="157.033" filterUnits="userSpaceOnUse" color-interpolation-filters="sRGB">
<feFlood flood-opacity="0" result="BackgroundImageFix"/>
<feBlend mode="normal" in="SourceGraphic" in2="BackgroundImageFix" result="shape"/>
<feColorMatrix in="SourceAlpha" type="matrix" values="0 0 0 0 0 0 0 0 0 0 0 0 0 0 0 0 0 0 127 0" result="hardAlpha"/>
<feOffset dx="1" dy="1"/>
<feGaussianBlur stdDeviation="0.5"/>
<feComposite in2="hardAlpha" operator="arithmetic" k2="-1" k3="1"/>
<feColorMatrix type="matrix" values="0 0 0 0 0.854902 0 0 0 0 0.576471 0 0 0 0 0.636314 0 0 0 1 0"/>
<feBlend mode="normal" in2="shape" result="effect1_innerShadow_770_473"/>
<feTurbulence type="fractalNoise" baseFrequency="2 2" numOctaves="3" seed="3648" />
<feDisplacementMap in="effect1_innerShadow_770_473" scale="2" xChannelSelector="R" yChannelSelector="G" result="displacedImage" width="100%" height="100%" />
<feMerge result="effect2_texture_770_473">
<feMergeNode in="displacedImage"/>
</feMerge>
</filter>
</defs>
</svg>
