<?xml version="1.0" encoding="UTF-8"?>
<svg id="Layer_1" data-name="Layer 1" xmlns="http://www.w3.org/2000/svg" viewBox="0 0 1037.9 1032.03">
  <path d="M167.95,894.17C41.08,775.78-22.42,603.93,7.18,430.48c14.75-86.44,49.85-165.17,104.05-233.18,2.68-3.37,8.86-12.79,11.24-15.02,1.36-1.27,3.14-1.25,4.54-2.95,1.17-1.43,1.21-3.3,2.2-4.55.87-1.1,3.45-2.52,4.9-4.09,5.97-6.48,12.5-15.21,18.71-21.01,1.96-1.83,3.46-2.51,5.94-4.93,12.04-11.73,25.74-24.18,38.88-34.56,1.46-1.15,4.61-1.52,6.71-3.2,57.29-45.81,130.6-79.25,202.77-94.97,220.15-47.97,447.88,50.45,560.88,245.1,142.62,245.68,59.7,558.57-182.77,702.6-196.71,116.85-450.57,90.04-617.3-65.54ZM868.47,153.18C655.97-52.74,313.25-32.51,126.26,196.56c-147.3,180.45-150.78,444.25-5.98,627.24,173.87,219.74,499.78,250.87,715.31,73.83,49.62-40.76,98.21-98.39,127.21-155.34.69-1.35.62-3.5,1.28-4.54s2.45-.67,3.13-1.73c1.07-1.66.6-4.68,1.22-6.06,5.25-11.76,11.71-23.62,16.44-35.48.96-2.4,3.18-4.58,3.48-5.37.56-1.45.04-4.85.71-6.75.49-1.39,2.37-2.96,3.2-5.08,5.53-14.06,9.64-29.06,13.4-43.71.84-3.28,1.37-8.41,2.3-11.03.6-1.69,2.13-1.37,2.48-3.46.45-2.64-.74-5.01-.44-6.43.2-.92,1.55-1.9,1.94-3.33.89-3.23.39-8.26,1.08-11.67.8-3.95,3.45-8.89,3.6-13.7.07-2.09-.96-4.04-.66-5.77.34-1.95,2.73-3,2.89-4.69.15-1.52-.89-4.2-.76-6.72.16-2.99,1.21-6.71,1.49-9.76,3.56-38.77,2.61-76.41-2.79-114.86-15.48-110.26-68.45-211.57-148.33-288.98Z"/>
  <path d="M507.56,134.93c198.11-7.81,372.9,140.79,398.01,336.77,33.16,258.83-187.18,474.65-445.32,435.58-173.17-26.21-309.94-170.48-326.51-345-21.41-225.52,148.01-418.44,373.82-427.34ZM518.8,139.43c-300.11,2.01-484.41,333.07-323.17,588.79,150.18,238.18,499.61,238.4,649.65,0,161.3-256.28-25.15-590.81-326.48-588.79Z"/>
  <path d="M945.89,326.31c-7.27,7.23-14.87,14.48-22.46,21.38-.73.66-1.61.66-1.26,2.11l40.51-3.36c.9.4,8.36,16.22,8.14,17.15-.23.99-2.62,2.18-3.68,1.63-1.67-.86-2.53-5.85-4.53-5.37l-37.72,17.6c-2.54,1.93,4.55,8.34-2.26,9.01-.94-.22-2.78-4.5-3.34-5.67-1.3-2.69-5.22-10.7-5.78-13-.2-.8-.61-1.47.01-2.26,3.76-3.55,5.4,1.08,6.47,4.45l38.2-16.81,1.46-1.88-48.96,4.37c-1.27-.44-2.15-2.71-2.02-3.98.29-2.73,28.37-27.71,32.64-31.86.61-.59,3.38-3.02,2.6-3.76l-38.25,17.61-.6,1.35,1.9,6.18c-1.12,1.42-3.35,2.86-4.48.9-.97-1.69-7.33-16.23-6.95-17.07,3.77-3.94,5.28.32,6.47,3.71l37.93-17.03c5.64-2.55-3.49-7.39,3.61-9.87.96.07,7.81,16.68,7.87,17.66.18,2.78-2.29,2.9-3.8,4.4-.75.75-1.08,1.76-1.71,2.39Z"/>
  <path d="M122.6,261.26c-.54-.89.2-1.8.59-2.58.83-1.68,11.53-15.83,12.53-16l3.05,2.56-2.46,5.62,13.54,9.79c.99.01,1.3-.6,1.89-1.15,1.51-1.4,10.86-13.93,11.87-15.85.46-.87,1.3-2.23.76-3.16l-13.17-9.02c-2.28-.72-3.64,3.24-5.2,3.54l-3.25-1.81c-.21-.94,9.86-14.22,11.25-15.66,1.58-1.63,4.52-2.71,5.16.06.44,1.87-3.95,4.93-2.59,7.05.48.75,12.43,8.92,14.41,10.35,2.73,1.96,17.97,13.14,19.53,13.52,2.29.56,3.91-3.22,5.8-4.21l3.24,2.43c-2.05,2.63-11.22,16.89-13.72,16.9-5.51,0,.51-6.75.04-7.53l-16.57-11.24-14.52,19.03c.17.96,14.67,11.15,15.67,11.42,1.91.52,7.1-6.96,8.14-1.48.23,1.2-11.85,17.21-12.99,17.31-4.37.36-1.76-5.83.06-7.26l-.38-1.18-34.94-24.33-5.22,4.31-2.53-1.43Z"/>
  <path d="M622.41,933.66l8.99,43.42,6.24-.66,1.66,3.71-21.46,4.16-.63-4.12,5.14-.85-4.44-20.64-23.18,4.25,3.75,20.09,6.55.19.82,3.17c-.3,1.01-1.12.92-1.87,1.18-5.5,1.95-13.93,2.02-19.78,3.76l-.74-4.42,6.71-1.96-9.21-40.99c-1.53-4.08-9.6,2.03-7.73-5.13l20.71-4.12,1.13,3.46-5.58,2.31,4.09,17.9,23.55-4.5-3.66-17.55-6.84-.43-.03-3.25c.19-.83,1.45-.84,2.1-1.02,2.14-.59,16.52-3.44,17.77-3.26.84.12,1.53.35,1.83,1.24l-.27,2.58-5.63,1.49Z"/>
  <path d="M252.05,908.2c-.32-.23-5.72,1.78-7.4-1.17.79-1.95,4.87-2.3,5.15-2.73.52-.79-.1-7.22.16-9.21.94-7.24,8.45-19.55,14.24-23.98,9.53-7.3,20.32-6.1,29.52,1.08,2.09,1.63,6.21,7.32,7.15,7.89,1.23.76,5.76-1.55,7.47,2.2l-5.17,3.09c3.03,12.3-8.29,31.9-19.79,36.38-10.63,4.14-22.36-1.81-29.29-9.93-.76-.89-1.87-3.51-2.03-3.63ZM257.4,899.9l38.16-16.93c-1.69-6.29-9.71-11.33-16.05-10.8-10.54.89-20.4,18.18-22.11,27.73ZM296.36,888.67l-37.02,15.81-1.2,1.77c2.12,6.73,9.03,11.44,16.14,10.95,10.52-.73,20.25-19.2,22.08-28.52Z"/>
  <path d="M835.49,820.95c3.34,3.34,27.75,25.6,27.42,27.51-1.9,1.75-4.29,5.7-6.95,5.69l-52.95-13.45,29.24,28.89c2,1.03,5.3-4.7,7.71-4.09,1.57.39,2.8,2.75,1.33,4.09-3.07,1.15-11.92,12.33-13.92,12.34-1.17,0-2.65-1.48-2.65-2.65.01-2.18,4.54-3.48,3.44-5.61l-29.24-29.28c-3.01-2.59-5.3,4.32-8.17,2.23l-1.28-1.8c0-1.15,10.76-12.33,13.15-12.44l48.34,12.06-25.49-25.89c-2.52-1.39-4.84,2.87-6.51,3.32-2.06.54-4.31-2.22-2.52-4.08,2.96-1.1,11.22-11.58,13.17-11.59,1.23,0,2.52,1.4,2.65,2.65,0,1.96-3.49,2.67-2.91,5.06.38,1.54,4.71,5.61,6.15,7.04Z"/>
  <path d="M363.07,936.64c1.69,2.78,5.1,4.42,6.17,7.69,2.21,6.74-1.46,16.18-8.56,18.02-9.48,2.46-24.62-4.95-33.56-8.88-1.25-.55-5.65-2.17-5.95-3.06-2.12-6.1,7.54-1.24,8.17-1.8l14.72-39.69c.91-2.88-4.44-2.94-5.4-4.52l.48-3.71c1.03-.27,1.99.02,2.97.31,4.86,1.42,28.02,11.1,31.08,13.89,9.1,8.29,2.59,23.94-10.11,21.74ZM346.61,928.34c7.3,1.9,15.94,9.2,20.86-.43,5.75-11.26-6.23-13.91-14.43-16.73l-6.44,17.16ZM358.32,954.36c2.74-2.87,4.25-9.15,2.4-12.77-2.09-4.1-12.03-8.11-16.4-8.39-1.3,2.59-7.84,18.46-6.65,19.84,6.24,1.79,14.97,7.28,20.65,1.32Z"/>
  <path d="M504.34,940.38l26.98,43.46-.38-36.35c-.74-3.98-11.29.72-6.76-6.83.86-.68,1.64.46,1.89.46h15.74l1.06,1.21-.25,2.6-6.46,1.94.78,48.22-9.37-.76-26.48-44.72-2.37-1.74.85,40.74,1.12,1.12,7.06.43.7,4.17h-20.61c-1.71-1.07-.15-2.78-.34-4.46l5.48-.15,1.23-1.77c-1.09-12.57,1.44-27.5.04-39.77-.68-5.91-9.17-.32-7.54-7.83h17.61Z"/>
  <path d="M119.5,319.83c4.53-4.08,6.44-6.16,12.72-4.1,5.13,1.69,10.61,7.74,13.99.29l3.95,2.01c-1.75,4.46-4.44,11.44-10.44,10.49-6.3-1-13.21-8.72-19.11-3.45-1.59,1.42-7.13,12.31-6.31,13.44l16.78,7.58,3.41-5.68,3.66.49c1.22,1.74-7.85,17.51-8.92,20.58l-3.68-.5,1.42-6.34-.74-1.44-39.28-16.93-2.83,5.18-4.36-.63c4.55-9.05,8.22-19.72,13.08-28.5,5.11-9.22,13.07-12.14,22.08-5.52,5.16,3.79,4.86,6.97,4.57,13.05ZM100.57,312.52c-4.57,1.18-7.84,11.03-9.49,15.1.23,1.03,16.47,8.42,18.18,7.87,3.09-4.03,6.77-11.33,5.39-16.44s-9.28-7.77-14.07-6.53Z"/>
  <path d="M374.32,97.25l.37,1.49c12.66-2.88,11.1,11.08,15.55,15.54,2.19,2.19,8.27-2.81,6.97,3.94-15.71,8.91-14.25-1.75-19.62-11.15-4.44-7.78-14.56-2.24-20.42,1.02l6.69,16.85,6.96-1.39,1.93,3.21c-.26,1.15-5.15,2.73-6.5,3.26-2.35.93-13.17,5.09-14.69,4.62-1.38-.43-1.48-2.03-1.15-3.2l4.83-2.7.19-2.47c-5.97-10.92-8.83-25.02-14.48-35.77-2.67-5.07-3.86-1.16-8.53-1.58l-.89-3.21c9.21-3.38,19.35-8.54,28.71-11.17,3.53-.99,5.86-1.74,9.62-.95,9.51,2,15.14,19.32,4.46,23.66ZM348.11,83.79l7.83,19.35c9.23-3.8,20.99-6.47,13.9-19.04-5.36-9.5-14.16-2.18-21.73-.31Z"/>
  <path d="M233.41,833.95c-1.18-4.02-6.08-5.16-1.12-8.98l13.91,13.07.63,2.13-2.55,2.05c-1.39-.01-3.32-2.78-4.9-3.36-1.94-.71-23.82,1.74-24.54,2.75.01,6.72-6.18,25.23-4.24,30.53.48,1.32,6.28,6.65,1.37,7.48-1.26.21-9.18-8.63-10.59-10.16-.21-6.04,6.65-25.97,4.67-30.26-.46-.99-3.55-4.1-4.85-3.43-3.5,1.81-8.36,10.77-12.42,13.18l3.45,6.35-2.05,2.55c-.93.34-1.43-.16-2.13-.63-1.3-.88-14.35-13.74-14.53-14.76l2.56-3.08,4.65,3.48,1.71-.27,29.06-30.74-4.13-6.02,2.54-2.56c1.12-.2,16.03,14.92,16.03,16.05,0,6.46-7.31-2.16-9.03-.79-1.54,3.86-9.56,8.81-10.88,11.67-.86,1.86,2.25,5.17,3.73,6.02,4.32,2.49,18.23-2.11,23.65-2.29Z"/>
  <path d="M829.76,161.02l2.13.63c16.27,16.57,39.99,29.38,17.6,53.65-19.13,20.73-31.89,8.15-47.63-7.12-2.51-2.43-10.84-8.6-4.47-10.54l5.63,3.42c5.02-6.18,10.84-11.69,16.11-17.63,1.69-1.91,12.04-13.12,12.28-14.03.62-2.38-3.14-3.53-3.58-5.25l1.94-3.14ZM838.7,175.23l-29.42,32.14.04,1.53c7,5.18,9.43,11.05,19.47,9.67,6.91-.95,15.3-9.98,18.74-15.73,7.69-12.85,1.38-19.77-8.83-27.61Z"/>
  <path d="M694.25,83.68l-7.4-1.43-6.03,17.59c2.91.75,5.9,3.31,8.96,2.26,1.33-.45,17.1-9.98,17.69-10.83.38-.55.83-1.35-.09-1.55-3.05-.83-7.02-2.88-3.6-5.93l18.33,7.16c-.2,7.05-5.02,1.1-9.07,2.9l-19.52,11.38,6.56,29.3c.4,1.62,5.77,2.7,6.13,3.28.57.91.15,3.2-1.13,3.6s-11.83-3.51-12.62-4.45c-2.68-3.22-4.34-23.27-7.07-28.91-1.13-2.34-4.18-3.53-6.75-3.24l-6.71,18.32c.13,1.29,5.59,1.28,5.92,4.5.25,2.41-1.13,2.8-3.22,2.45-1.3-.22-18.42-6.84-18.61-7.84l.85-3.99,7.41,1.43,14.15-38.74c1.01-3.66-3.41-3.59-5.54-5.4l1.14-3.47,20.27,7.56c1.43,1.04.36,2.68-.08,4.05Z"/>
  <path d="M951.4,636.84l1.69-1.64,8.04-16.33c-2.83,13.07-10.12,25.51-8.88,39.24.61,1.88,9.33,1.4,11.54,1.26,4.1-.25,8.65-1.35,12.67-2.24l1.16,1.82c-3.22,3.1-6.79,5.79-10.55,8.2-13.68,8.75-22.12,7.4-30.05,23.91-.34.7-1.58,6.7-2.86,5.01-1.84-7.9.47-14.93,1.37-22.68-6.88-9.43-12.99-19.52-17.84-30.16l1.85-.37c3.69,3.46,17.17,16.5,21.69,15.79,5.83-12.72,7.91-26.79,10.17-40.52l.78,7.15-.78,11.58Z"/>
  <path d="M91.95,634.41l32.04,15.19-.37,1.49c-3.95,0-25.65-3.98-27.26-1.41.82,14.69,9.56,27.4,13.39,41.13l-10.48-16.49,2.99,20.23c-2.24.4-1.18-.59-1.58-1.75-3.02-8.95-4.65-19.76-8.54-28.22-1.13-2.47-4.28-8.87-7.14-7.93-5.8,1.89-13.59,11.02-18.71,14.68.03-8.14,4.47-15.91,8.11-22.99,2.55-4.96,6.26-8.5,7.44-14.29,1.33-6.51-.28-12.55-1.31-18.93,6.21,4.64,8.58,12.42,11.42,19.3Z"/>
  <path d="M895.91,228.4l23.99,34.78c-2.18,1.09-10.22,8.7-11.98,7.6-.68-.43-2.43-3.36-2.17-4.39.53-2.07,6.52-4.9,5.83-7.49l-10.77-14.73-14.53,10.93,11.83,17.05c-.92,1.04-3.38,3.79-4.82,2.78-2.68-1.86-9.71-16.18-11.26-16.55l-16.51,11.98c-.52.89,10.69,16.43,11.68,16.92,2.07,1.02,5.93-3.9,8.65-4.19,8.59,5.62-3.68,9.4-7.55,13.39l-25.67-35.47,3.08-2.56,3.6,4.33c.67.39,1.5.03,2.16-.21,3.05-1.13,15.77-11.6,19.38-14.37,1.96-1.51,13.58-10.01,14-10.79,1.05-1.96-3.05-5.01-2.74-7.04l3.79-1.94Z"/>
  <path d="M279.99,138.36c2.61,1.52,16.67-11.81,19.26-10.29l2.36,5.14-17.99,9.02,10.97,17.93,17.93-10.43-4.22-9.32,4.32-2.6c1.71-.29,7.86,10.05,8.42,12.2l-38.13,22.16-.46-3.71,4.08-3.48-23.11-36.66-6.41,2.58-1.92-3.97,35.67-21.25c.69.06,6.75,9.29,7.29,10.57.92,2.15-2.94,3.68-4.69,3.89l-6.35-7-16.12,10.02,9.1,15.22Z"/>
  <path d="M78.28,385.78l-1.98,5.94-9.19-.62-4.55,18.62,18.69,3.75,4.86-20.01,4.87,1.76-5.95,19.77,20.93,4.45c.36-5.42,4.6-13.25,4.59-18.34-.01-4.08-6.53-2.67-8.66-5.54l1.16-5.27,14.18,3.01-11.18,42.39-3.69-.54c-1.15-1.79,2.38-6.01-.6-7.27-12.28-1.61-25.5-7.46-37.54-8.93-8.32-1.02-2.8,8.06-9.6,5.11l9.79-40.53c1.51-1.92,11.07,2.52,13.87,2.26Z"/>
  <path d="M452.91,935.97l-1.4,13.4c-9.51.75-5.31-3.9-6.1-10.4l-19.39-3.85-2.69,18.02,20.48,4.8-.91,4.19c-.39.61-.78.69-1.45.7-3.65.08-16.74-5.98-19.23-4.15l-3.66,18.87c-.11,1.03.42,1.29,1.24,1.64,4.77,2.05,14.4,1.77,19.7,3.9l2.28-9.73,5.97.74-2.26,14.99-43.45-9.02.85-3.62,7.37-.11,7.48-43.44-6.41-2.26,1.14-3.4,40.42,8.73Z"/>
  <path d="M773.67,178.27l-.59,2.59-2.5.96-16.99-10.45,1.81-4.34c1.57.47,5.38,3.99,6.75,2.15s4.15-14.44,2.64-16.12c-.51-.57-12.26-7.86-13-8.07-.43-.12-.78-.45-1.25-.15-.99.29-10.73,8.8-11.13,9.86-.89,2.36,4.13,3.33,5.07,5.18l-1.92,3.25-15.9-10.17,1.84-3.21,5.52,1.85,38.66-31.93c2.13.56,8.32,3.69,8.62,5.68l-11.25,48.06c-.48,2.57,1.43,4.11,3.61,4.86ZM772.27,126.47c-.49-.56-6.01,4.23-6.75,4.86-3.61,3.04-7.09,6.45-10.47,9.75,1.71,1.3,11.46,8.21,12.72,7.12l4.5-21.73Z"/>
  <path d="M507.71,84.5h6.74c.1,10.06,1.53,13.44,12.36,12.74,7.31-.47,13.07-7.05,8.64-13.87-6.02-9.27-29.68-5-27.65-24.65,1.4-13.62,18.28-15.75,28.39-10.2l.05-2.17,5.95-.08v16.49h-6c1.04-9.11-4.26-13.16-13.05-11.92-7.25,1.03-10.13,9.95-4.14,14.5,7.9,6.01,23.9,5.08,26.01,17.46,3.63,21.36-24.69,23.52-37.29,14.06v-12.37Z"/>
  <path d="M709.27,950.81c1.44-2.02-8.13-11.77-10.16-13.28l-16.02,6.23-.71,1.42,2.22,15.44,6.99-2.17,1.97,3.25c-.18.78-12.76,5.91-14.55,6.45-3.72,1.12-4.73,1.58-4.86-2.96l4.32-1.69-3.5-52.22c2.71-.68,7.01-3.96,9.6-2.76.93.43,6.66,6.54,7.9,7.87,8.77,9.39,16.72,19.83,25.44,29.31,2.67,1.8,8.93-3.59,7.18,3.31-5.27,1.35-13.67,6.99-18.56,7.74-.92.14-1.47.26-2.1-.59-1.63-3.54,2.18-4.46,4.85-5.34ZM695.83,933.62c-4.82-6.06-9.91-12.13-15.73-17.23l1.84,21.76c.75,1.04,1.01.61,1.91.39,3.68-.89,8.11-4.04,11.97-4.92Z"/>
  <path d="M628.34,113.69l-21.69-3.71.7-4.17,6.79.43c.72-.72-.94-14.71-2.18-16.18l-17.3-3.74-6.75,13.58c.03,2.71,5.32,1.67,6.42,3.29.75,1.11.57,3.27-.9,3.72-.79.24-14.49-2.44-16.34-2.97-5.42-1.53.23-6.17,4.72-4.58l24.1-44.51c2.57.25,8.8.35,9.95,2.83l7.41,49.55,5.57,2.72-.49,3.73ZM608.13,62.02c-1.18-1.1-1.28.37-1.67.96-1.62,2.5-4.05,7.42-5.46,10.26-.72,1.46-4.4,7.97-3.36,9.01l13.49,2.25c.78-.83-2.18-21.7-3-22.48Z"/>
  <path d="M241.45,206.43c-.78.91-5.49,4.58-6.59,4.37l-45.15-24.22c-3.06,2.39-4.01,2.74-6.48-.53l16.74-14.54,1.63,1.45c1.58,3.38-4.64,6.33-3.79,7.48l36,20.21.5-1.97-15.88-36.99c-.97-.74-4.3,3.3-5.8,3.61-2.85.59-4.36-1.62-2.49-4.04l12.31-10.01,2.55,2.56-1.95,5.05c4.77,12.74,11.48,25.16,16.19,37.85.85,2.29,3.68,8,2.21,9.72Z"/>
  <path d="M723.7,893.02l-1.51-2.49c-.02-1.11,17.47-11.96,18.86-11.54l1.64,2.95-5.63,4.86,33.71,25.85-9.74-40.47c-2.87-.37-4.91,2.91-7.7,2.14-5.16-1.42.98-4.66,2.81-5.9,2.1-1.42,6.19-4.32,8.21-5.29,2.75-1.32,3.42-.28,4.05,2.57l-2.72,3.69,11.44,49.3c-2,1.38-5.64,5-8.06,4.34l-39.54-31.04-5.83,1.02Z"/>
  <path d="M466.49,49.27l.41,3.79c-2.39,1.36-4.46,1.8-4.71,5.02l-7.49,46.47c-1.18,2.49-6.84,2.32-9.44,2.46l-25.74-44.87c-4.27,1.16-7.12-3.57-2.83-4.59,6.08-1.45,13.5-1.9,19.75-2.96l.52,3.7-7.18,2.25.11,1.7,20.85,35.75,6.01-41.97-6.74.41-1.48-4.12,17.95-3.03Z"/>
  <path d="M987.37,427l-3.8.4-2.21-6.4-42.64,10.57.65,7.38-4.48.79-4.43-21.25,1.82-1.29c4.2-.39,2.27,5.95,5.17,6.02l41.36-11.19-.33-6.28c.62-1.85,3.71-1.79,4.23.04l4.65,21.2Z"/>
  <path d="M439.28,542.92c-1.87,1.58-4.5,1.84-6.86,1.74-7.97-.34-18.12-2.75-26.35-3.66-26.07-2.88-54.92-7.21-80.85-8.33-7.35-.32-13.58-1.2-14.61,7.86-1.3,11.49-.55,25.75-.72,37.51-.08,5.79-2.88,15.01,6.32,16.1,8.62,1.02,19.62-.18,28.53.76,40.75-1.01,81.21-5.67,121.15-13.75,9.39-1.9,20.72-5.84,29.66-7.11,5.43-.77,8.57,4.23,8.48,9.22-.31,17.09-2.37,34.47-2.35,51.67-1.62,6.37-6.94,5.86-12.35,5.69-6.42-.2-13.74-1.3-20.17-1.56-67.82-2.71-135.84-3.77-203.92-3-10.04.11-20.59,1.75-30.73.82-3.97-.36-6.61-2.26-7.1-6.39-1.72-14.59.6-31.76.8-46.45.74-55.37-.26-112.89,2.96-167.92.52-8.82-2.49-15.87,9.35-16.88,81.32-.86,162.63-1.44,243.63,2.99,7.27.4,17,.46,23.91,1.57,8.66,1.39,5.71,9.08,5.64,14.54-.13,9.65.42,22.17-.7,31.53-1.21,10.08-10.16,6.69-16.89,6.36-34.51-1.68-68.87-3.42-103.38-4.54-22.93,2.06-50.36-2.62-72.75.02-2.31.27-4.87,1.68-5.78,3.96-.68,1.69-1.22,9-1.35,11.39-.31,5.92.18,12.09.06,18.05s-3.72,15.3,3.68,18.74c12.35.39,24.81.62,37.17.37,29.86-.62,59.97-3.31,89.87-4.56,7.22-.3,22.04-2.12,17.26,9.77l-21.59,33.48Z"/>
  <path d="M640.55,528c1.73,1.73,12,.7,15.17.94,43.55,3.23,89.24,17,118.02,51.35,13.17,15.72,22.74,29.87,38.23,44.21,3.02,2.8,13.47,9.69,14.12,12.91,1.24,6.11-4.01,8.77-9.22,9.22-12.68,1.08-26.96.57-39.72.75-16,.23-32.29.23-48.18-.6-36.62-36.39-70.55-75.47-104.37-114.47-2-2.67-1.56-6.03.33-8.67,30.14-30.59,59.55-61.9,88.49-93.63,3.43-3.76,13.39-16.77,16.81-18.41,1.63-.79,2.32-.95,4.13-1.12,13.51-1.31,30.29.33,44.29.07,12.39-.24,24.99-.51,37.47-.75,5.33-.1,15.86-3.34,18.98,2.69,2.45,4.73-.09,7.58-2.92,11.13-12.18,15.25-27.59,31.46-40.81,46.12-8.16,9.05-16.48,18.01-24.84,26.87-5.55,3.09-20.61,1.2-27.66,1.57-27.6,1.46-56.91,5.47-82.3,16.63-2.8,1.23-14.31,6.58-15.88,8.1-1.39,1.34-1.48,3.79-.16,5.11Z"/>
  <path d="M545.72,406.17l70.25,2.88c2.58.41,4.71,2.57,5.51,4.99-.85,66.75-6.88,133.37-9.62,199.92-.31,7.44,1.35,21.62-1.29,27.94-2.64,6.34-12.78,3.28-17.76,3.16-11.64-.27-22.96-.83-34.51-1.46-7.34-.4-15.91.18-23.16-.83-10.25-1.42-6.52-12.45-6.41-19.01,1.11-63.35,8.1-126.38,11.24-189.61.26-5.22-.37-10.55-.02-15.76s.26-10.45,5.77-12.22Z"/>
</svg>