<?xml version="1.0" encoding="UTF-8"?>
<svg id="Layer_1" data-name="Layer 1" xmlns="http://www.w3.org/2000/svg" viewBox="0 0 881.51 292.67">
  <path d="M140.08,224.69c-19.15,0-36.79-2.61-53.91-7.99-16.93-5.31-31.96-12.95-44.67-22.69-12.75-9.76-22.96-21.61-30.34-35.22C3.76,145.13,0,129.91,0,113.55c0-17.37,3.95-33.2,11.74-47.05,7.76-13.81,18.35-25.66,31.48-35.23,13.08-9.54,28.61-16.96,46.15-22.07,17.49-5.1,36.17-7.68,55.53-7.68,21.12,0,40.33,3.05,57.12,9.07,16.79,6.01,31.26,14.21,43.01,24.38,11.75,10.17,20.89,22.08,27.15,35.4,6.26,13.34,9.44,27.47,9.44,42,0,16.08-3.78,31.17-11.22,44.85-.05.13-.11.25-.19.37-7.49,13.64-17.79,25.64-30.62,35.67-12.83,10.03-27.98,17.87-45.05,23.29-17.02,5.4-35.34,8.14-54.47,8.14ZM144.89,5.52c-18.98,0-37.29,2.53-54.41,7.52-17.09,4.98-32.21,12.2-44.91,21.47-12.66,9.22-22.87,20.65-30.34,33.95-7.45,13.24-11.22,28.41-11.22,45.09,0,15.69,3.59,30.26,10.68,43.33,7.11,13.11,16.96,24.54,29.26,33.96,12.34,9.46,26.95,16.88,43.43,22.05,16.73,5.25,33.97,7.81,52.71,7.81s36.63-2.68,53.25-7.96c16.61-5.28,31.34-12.89,43.79-22.63,12.37-9.68,22.31-21.24,29.53-34.36.03-.07.06-.14.1-.2,7.21-13.14,10.86-27.67,10.86-43.17,0-13.94-3.05-27.49-9.06-40.3-6.02-12.81-14.82-24.27-26.15-34.08-11.38-9.85-25.42-17.8-41.75-23.64-16.36-5.86-35.12-8.83-55.78-8.83ZM141.55,220.21c-15.79,0-29.85-2.98-41.78-8.86-11.92-5.86-21.98-13.76-29.91-23.49-7.91-9.71-13.94-21.07-17.94-33.76-3.93-12.47-6.01-26.18-6.01-39.66s1.83-26.12,5.45-38.87c3.63-12.81,9.35-24.42,16.99-34.51,7.65-10.12,17.59-18.48,29.52-24.86,11.95-6.39,26.28-9.63,42.58-9.63s30.2,3.24,42.04,9.63c11.8,6.37,21.79,14.77,29.69,24.99,7.87,10.16,13.83,21.66,17.73,34.18.03.09.05.18.06.27,3.87,12.53,5.75,24.64,5.75,37s-1.96,25.48-5.83,38.15c-3.89,12.71-9.78,24.31-17.53,34.48-7.79,10.22-17.65,18.68-29.31,25.14-11.72,6.5-25.68,9.79-41.5,9.79ZM140.45,10.58c-15.64,0-29.33,3.08-40.7,9.15-11.42,6.1-20.91,14.09-28.22,23.74-7.34,9.69-12.84,20.86-16.33,33.19-3.51,12.39-5.29,25.1-5.29,37.77s2.02,26.38,5.83,38.46c3.84,12.21,9.64,23.12,17.22,32.44,7.56,9.28,17.17,16.82,28.57,22.43,11.38,5.6,24.85,8.45,40.02,8.45s28.44-3.12,39.56-9.29c11.18-6.19,20.62-14.29,28.07-24.06,7.46-9.79,13.14-20.97,16.89-33.22,3.75-12.29,5.65-24.74,5.65-36.98s-1.8-23.68-5.65-36.09c-.03-.09-.05-.18-.06-.27-3.75-11.96-9.47-22.95-16.99-32.65-7.56-9.77-17.12-17.81-28.43-23.92-11.25-6.07-24.76-9.15-40.14-9.15Z"/>
  <path d="M421.37,292.67c-9.09,0-16.8-1.15-22.9-3.4-8.42-3.11-10.19-8.74-10.19-12.91,0-2.7,1.12-5.27,3.32-7.62,2.23-2.4,5.77-3.61,10.53-3.61,3.26,0,5.81.39,7.78,1.19,1.87.75,3.53,1.7,4.94,2.82.48.38.75.96.75,1.56,0,1.51-.07,2.77-.21,3.84-.12.88-.17,1.69-.17,2.42,0,5.42,2.47,7.84,8,7.84,4.48,0,8.17-1.31,11.28-3.99,3.02-2.61,4.49-6.4,4.49-11.61s-2.4-9.45-7.34-13.16c-5.13-3.86-12.8-6.59-22.79-8.12-.75-.11-1.37-.64-1.6-1.37-.23-.72-.04-1.51.51-2.04l20.96-20.47c-21.15-.35-40.53-3.02-57.68-7.94-18.55-5.32-34.46-12.95-47.3-22.7-12.89-9.78-22.98-21.64-30-35.27-7.03-13.65-10.59-28.75-10.59-44.9,0-3.65.32-7.85.95-12.5.62-4.66,1.77-9.68,3.4-14.94,1.63-5.25,3.91-10.82,6.78-16.55,2.84-5.7,6.59-11.58,11.12-17.47,5.25-6.84,11.83-13.48,19.58-19.72,7.75-6.24,16.99-11.8,27.45-16.52,10.46-4.71,22.43-8.52,35.58-11.31,13.19-2.8,28.15-4.22,44.47-4.22,14.83,0,28.04,1.12,39.25,3.32,11.13,2.2,20.57,4.63,28.03,7.23,7.62,2.67,13.29,5.05,17.34,7.3,3.73,2.07,5.19,2.75,5.73,2.96.25-.11.76-.37,1.65-.95,1.28-.85,2.69-1.89,4.28-3.17,1.56-1.26,3.19-2.72,4.85-4.34.58-.56,1.41-.75,2.17-.48,1.56.55,2.34.83,6.41,32.69,1.94,15.16,3.67,30.43,3.69,30.58.06.54-.1,1.09-.45,1.51-.35.42-.86.68-1.4.71l-4.38.3c-.06,0-.12,0-.19,0h0c-.95,0-1.74-.66-1.95-1.55-3.13-9.23-7.86-18-14.07-26.07-6.25-8.13-13.76-15.32-22.33-21.35-8.55-6.01-18.34-10.84-29.09-14.34-10.73-3.5-22.29-5.27-34.36-5.27-16.65,0-31.69,3.05-44.69,9.06-13.01,6.01-24.06,14.07-32.84,23.96-8.8,9.91-15.65,21.28-20.35,33.81-4.71,12.54-7.09,25.6-7.09,38.81,0,13.99,2.5,27.28,7.44,39.51,4.92,12.21,12.05,22.96,21.2,31.97,9.12,9,20.36,16.23,33.4,21.49,13.02,5.25,27.71,7.91,43.67,7.91,12.55,0,24.48-1.87,35.45-5.57,10.99-3.69,20.9-8.62,29.47-14.65,8.54-6,15.86-13.03,21.76-20.89,5.86-7.82,9.92-15.96,12.06-24.2.23-.88,1.02-1.5,1.94-1.5h4.44c.6,0,1.16.27,1.54.73.38.46.53,1.07.42,1.66-.03.14-2.75,13.99-5.88,27.81-6.57,28.99-8.41,29.63-9.89,30.13-.81.28-1.67.11-2.32-.46-3.46-3-4.85-3.55-5.25-3.66-.45.15-1.75.69-5.49,2.59-3.76,1.92-9.05,4.06-16.17,6.52-6.99,2.41-15.61,4.64-25.62,6.63-9.83,1.96-21.29,3.07-34.08,3.3l-7.56,8.7c4.9,1.16,9.18,2.68,12.74,4.54,4.39,2.29,7.99,4.88,10.7,7.7,2.73,2.83,4.79,5.73,6.12,8.6,1.35,2.94,2.03,5.78,2.03,8.44,0,5.23-1.65,9.87-4.9,13.8-3.09,3.74-6.96,6.91-11.49,9.42-4.41,2.44-9.11,4.31-13.98,5.56-4.84,1.23-9.25,1.85-13.09,1.85ZM402.13,269.12c-3.6,0-6.16.79-7.6,2.34-1.51,1.62-2.25,3.22-2.25,4.9,0,4.28,2.48,7.27,7.57,9.15,5.59,2.07,12.72,3.13,21.19,3.16-6.36-.74-9.82-4.83-9.82-11.72,0-.91.07-1.9.21-2.94.09-.66.14-1.43.16-2.32-.93-.64-2-1.2-3.17-1.67-1.47-.6-3.58-.9-6.29-.9ZM413.35,244.63c8.79,1.72,15.74,4.48,20.7,8.2,5.93,4.45,8.94,9.96,8.94,16.36s-1.98,11.27-5.87,14.63c-1.96,1.7-4.15,2.96-6.55,3.79.95-.2,1.91-.42,2.9-.67,4.54-1.16,8.92-2.91,13.03-5.18,4.09-2.27,7.57-5.12,10.35-8.47,2.68-3.24,3.98-6.92,3.98-11.25,0-2.08-.56-4.36-1.67-6.77-1.14-2.46-2.94-4.98-5.36-7.5-2.41-2.5-5.66-4.83-9.67-6.92-4.01-2.09-9.06-3.73-15-4.88-.7-.14-1.28-.64-1.51-1.31s-.09-1.42.38-1.96l10.37-11.93c.37-.43.91-.68,1.48-.69,12.91-.2,24.43-1.29,34.25-3.24,9.83-1.96,18.28-4.14,25.1-6.49,6.84-2.37,12.11-4.49,15.66-6.3,5.58-2.84,6.48-3.05,7.2-3.05,1.15,0,2.82.44,6.55,3.46,2.58-5.82,8.05-29.33,12.49-51.66h-.48c-2.36,8.23-6.5,16.33-12.33,24.1-6.16,8.19-13.78,15.51-22.66,21.75-8.88,6.25-19.14,11.36-30.49,15.17-11.38,3.83-23.74,5.77-36.73,5.77-16.47,0-31.67-2.76-45.17-8.19-13.54-5.45-25.22-12.97-34.72-22.35-9.54-9.4-16.97-20.61-22.1-33.33-5.13-12.71-7.73-26.51-7.73-41.01,0-13.69,2.47-27.22,7.35-40.21,4.87-12.99,11.98-24.79,21.11-35.07,9.16-10.3,20.65-18.69,34.16-24.94,13.53-6.25,29.13-9.42,46.37-9.42,12.49,0,24.47,1.84,35.6,5.47s21.27,8.63,30.15,14.88c8.9,6.27,16.7,13.74,23.2,22.19,6.19,8.05,10.98,16.78,14.24,25.96l.82-.06c-2.2-19.24-5.72-47.48-7.51-56.18-.98.89-1.95,1.72-2.9,2.48-1.69,1.36-3.19,2.47-4.59,3.39-1.82,1.19-2.94,1.67-3.88,1.67-.63,0-1.28,0-7.63-3.53-3.79-2.1-9.42-4.46-16.72-7.02-7.29-2.54-16.54-4.93-27.49-7.09-10.96-2.15-23.91-3.24-38.48-3.24-16.04,0-30.72,1.39-43.63,4.14-12.87,2.73-24.56,6.45-34.76,11.05-10.15,4.58-19.1,9.96-26.59,15.98-7.5,6.04-13.86,12.44-18.92,19.04-4.38,5.69-7.99,11.35-10.72,16.83-2.78,5.54-4.98,10.9-6.54,15.95-1.57,5.04-2.67,9.85-3.26,14.28-.61,4.47-.91,8.5-.91,11.97,0,15.5,3.41,29.99,10.15,43.06,6.74,13.09,16.45,24.5,28.86,33.91,12.44,9.45,27.91,16.86,45.98,22.04,18.1,5.19,38.78,7.82,61.45,7.82.81,0,1.55.49,1.85,1.25.31.75.13,1.62-.45,2.19l-21.63,21.13ZM530.02,205.64s0,0,0,0c0,0,0,0,0,0ZM523.1,20.91h0s0,0,0,0ZM522.62,20.9h0Z"/>
  <path d="M787.22,223.19c-.38,0-.75-.11-1.08-.32-2.91-1.93-4.8-3.23-5.95-4.1-1.46-1.1-2.8-2.13-4.09-3.16-1.55-1.22-3.46-2.99-5.81-5.38-2.2-2.23-5.74-5.67-10.53-10.24-5.58-5.44-10.66-10.52-15.13-15.11-4.21-4.33-8.66-8.78-13.24-13.23-4.46-4.33-9.35-8.77-14.52-13.18-5.38-4.57-11.64-9.62-18.6-15-5.9-4.49-12.41-8.75-19.34-12.66-6.8-3.83-14.05-6.26-21.55-7.22-5.64-.78-9.93-1.17-12.8-1.17-2.25,0-5.06-.07-8.35-.21v31.61c0,9.46.15,17.55.45,24.06.3,6.32.6,11.83.9,16.36.27,4.11,1.7,7.39,4.36,10.04,2.23,2.41,6.68,4.9,13.27,7.46,6.68,2.6,16.15,4.1,28.14,4.49,1.08.03,1.94.92,1.94,2v2.98c0,1.1-.9,2-2,2h-144.02c-1.1,0-2-.9-2-2v-2.98c0-1.02.77-1.88,1.79-1.99,7.41-.78,14.59-1.97,21.36-3.54,6.58-1.52,11.75-3.79,15.39-6.75,1.23-.97,2.23-2.49,2.99-4.53.84-2.22,1.48-4.8,1.92-7.65.43-2.87.8-6.04,1.1-9.41.29-3.31.44-6.56.44-9.66s.08-6.82.23-11.4c.11-3.51.21-7.27.33-11.27l.12-4.38c.15-5.74.23-11.6.23-17.39V54.78c0-3.45-.08-7.08-.23-10.8-.15-3.6-.44-7.05-.88-10.25-.43-3.1-1.14-5.96-2.13-8.5-.89-2.27-2.07-3.91-3.51-4.87-4.3-3.04-9.11-5.08-14.36-6.11-5.52-1.08-12.34-2.03-20.28-2.8-1.02-.1-1.81-.96-1.81-1.99v-2.98c0-1.1.9-2,2-2h18.45c10.13,0,21.78-.05,34.63-.15,12.89-.1,25.92-.15,38.73-.15h31.5c19.97,0,38.03.4,53.66,1.19,15.73.81,30.31,3.55,43.33,8.16,13.39,4.63,24.39,11.06,32.68,19.09,8.47,8.22,12.76,18.68,12.76,31.11,0,7.73-2.17,14.79-6.43,20.97-4.16,6.03-9.79,11.43-16.74,16.04-6.87,4.55-14.96,8.49-24.06,11.7-7.59,2.68-15.57,5.03-23.77,7.01,3.66,1.65,7.25,3.71,10.75,6.16,4.87,3.44,9.63,7.3,14.16,11.5,8.25,8,16.8,16.22,25.45,24.47,8.74,8.36,16.99,16.18,24.52,23.25,10.89,10.14,21.61,17.64,31.86,22.3,10.28,4.67,22.49,7.72,36.28,9.07,1.02.1,1.81.96,1.81,1.99v2.98c0,1.1-.9,2-2,2h-91.95c-.11.02-.23.03-.34.03ZM547.45,219.18h122.29c-6.33-.81-11.68-2.06-15.99-3.74-7.26-2.82-12.07-5.57-14.69-8.41-3.28-3.26-5.15-7.5-5.48-12.56-.3-4.56-.6-10.09-.9-16.44-.3-6.57-.45-14.73-.45-24.24v-33.7c0-.55.22-1.07.62-1.45.24-.23.53-.39.85-.48-.83-.24-1.45-1.01-1.45-1.92v-32.8c0-8.29.07-16.83.22-25.38.15-8.61.38-16.55.68-23.61l.3-4.67c.15-2.4.28-4.38.38-5.95.15-2.5.3-4.48.46-5.91.17-1.53.43-2.82.77-3.86.27-.81.56-1.82.85-2.98.21-.82.91-1.42,1.75-1.5,2.11-.2,5.17-.41,9.09-.61,3.91-.2,9.09-.3,15.4-.3,8.71,0,17.2.51,25.23,1.5,8.09,1.02,15.85,2.65,23.06,4.84,14.61,4.65,25.9,11,33.59,18.9.1.09.2.19.28.3,7.73,8.07,11.66,17.41,11.66,27.77,0,5.59-1.11,11.07-3.31,16.29-2.21,5.2-5.61,10.08-10.12,14.52-4.47,4.4-10.32,8.38-17.4,11.85-7.03,3.44-15.51,6.2-25.22,8.21-9.93,2.2-20.4,3.66-31.11,4.36-9.6.63-20.1.98-31.25,1.04,2.74.1,5.09.16,7.03.16,3.09,0,7.45.4,13.32,1.21,8,1.02,15.74,3.62,22.99,7.7,7.09,4,13.75,8.36,19.81,12.97,7.02,5.43,13.33,10.51,18.76,15.13,5.24,4.47,10.2,8.97,14.72,13.36,4.6,4.47,9.09,8.95,13.32,13.31,4.44,4.57,9.5,9.62,15.04,15.02,4.87,4.65,8.35,8.03,10.61,10.32,2.24,2.28,4.02,3.93,5.44,5.06,1.27,1.01,2.58,2.03,4.01,3.1,1.01.77,2.67,1.91,5.19,3.59h83.42c-10.96-1.67-20.83-4.49-29.44-8.4-10.65-4.83-21.73-12.58-32.94-23.02-7.54-7.08-15.8-14.92-24.55-23.28-8.65-8.26-17.21-16.49-25.44-24.46-4.37-4.04-8.99-7.8-13.71-11.13-4.64-3.26-9.47-5.78-14.36-7.5-.8-.28-1.34-1.04-1.34-1.89v-.89c0-.94.65-1.75,1.57-1.95,9.74-2.15,19.2-4.83,28.12-7.98,8.79-3.1,16.59-6.89,23.18-11.26,6.52-4.33,11.79-9.37,15.66-14.98,3.8-5.5,5.73-11.79,5.73-18.69,0-11.46-3.78-20.7-11.54-28.23-7.87-7.62-18.38-13.74-31.22-18.19-12.67-4.49-26.87-7.16-42.21-7.94-15.57-.79-33.55-1.19-53.46-1.19h-31.5c-12.8,0-25.82.05-38.69.15-12.87.1-24.53.15-34.67.15h-9.25c4.34.56,8.24,1.18,11.66,1.85,5.8,1.14,11.13,3.41,15.85,6.74,2.09,1.39,3.78,3.66,4.98,6.71,1.1,2.83,1.9,5.99,2.37,9.41.46,3.33.76,6.9.92,10.63.15,3.77.23,7.46.23,10.96v75.45c0,5.83-.08,11.72-.23,17.5l-.12,4.38c-.11,4.01-.22,7.77-.33,11.29-.15,4.54-.23,8.33-.23,11.27,0,3.22-.15,6.59-.46,10.02-.31,3.46-.69,6.71-1.13,9.66-.48,3.13-1.2,5.98-2.13,8.46-1.03,2.72-2.45,4.82-4.23,6.23-4.09,3.34-9.82,5.88-16.99,7.53-4.46,1.03-9.09,1.91-13.85,2.61ZM639.41,13.44c-.2.7-.39,1.33-.58,1.9-.26.76-.45,1.77-.59,3.01-.15,1.36-.29,3.29-.44,5.72-.09,1.58-.22,3.56-.38,5.97l-.29,4.63c-.3,6.98-.53,14.89-.68,23.47-.15,8.53-.22,17.04-.22,25.32v30.8c11.55-.04,22.41-.38,32.3-1.03,10.5-.68,20.77-2.12,30.53-4.28,9.41-1.95,17.58-4.6,24.3-7.89,6.69-3.28,12.2-7.02,16.36-11.11,4.13-4.07,7.24-8.52,9.24-13.23,1.98-4.72,2.99-9.67,2.99-14.73,0-9.35-3.6-17.81-10.69-25.15-.04-.04-.07-.08-.11-.12-7.23-7.42-17.97-13.43-31.92-17.87-6.97-2.12-14.51-3.7-22.37-4.69-7.87-.98-16.19-1.47-24.73-1.47-6.24,0-11.36.1-15.2.3-3.07.16-5.59.32-7.53.47Z"/>
  <path d="M477.2,170.49c-.14,0-.28-.01-.42-.05-.36-.08-.69-.25-.95-.5l-40.03-29.56-40.22,29.7c-.7.52-1.65.52-2.35.02-.71-.5-1-1.41-.74-2.23l15.37-48.1-40.15-29.64c-.69-.51-.98-1.41-.71-2.23.27-.82,1.04-1.37,1.9-1.37h49.59l15.4-48.17c.27-.83,1.04-1.39,1.91-1.39s1.64.56,1.91,1.39l15.39,48.17h49.58c.86,0,1.63.55,1.9,1.37.27.82-.02,1.72-.71,2.23l-40.15,29.64,15.32,47.89c.09.19.14.4.17.62.06.56-.13,1.12-.51,1.54h0c-.38.43-.92.67-1.48.67ZM374.98,90.52l36.41,26.88c.69.51.98,1.4.72,2.22l-13.93,43.58,36.43-26.9c.71-.52,1.67-.52,2.38,0l36.41,26.89-13.94-43.56c-.26-.82.03-1.71.72-2.22l36.41-26.88h-44.96c-.87,0-1.64-.56-1.91-1.39l-13.93-43.6-13.93,43.6c-.27.83-1.04,1.39-1.91,1.39h-44.97ZM462.04,149.35c-.42,0-.83-.13-1.19-.39l-25.06-18.5-25.06,18.5c-.7.51-1.65.52-2.35.02-.71-.5-1-1.41-.74-2.23l9.59-30-25.02-18.48c-.37-.21-.67-.54-.85-.95-.31-.74-.16-1.59.39-2.17.43-.45,1.04-.66,1.62-.62h30.96l9.56-29.89c.26-.83,1.03-1.39,1.9-1.39s1.64.56,1.91,1.39l9.55,29.89h31.12c.86,0,1.63.55,1.9,1.37.27.82-.02,1.72-.71,2.23l-25.21,18.62,9.59,29.99c.26.83-.03,1.73-.74,2.23-.35.25-.76.38-1.17.38ZM399.3,98.52l21.46,15.85c.69.51.98,1.4.72,2.22l-8.15,25.48,21.27-15.71c.71-.52,1.67-.52,2.38,0l21.27,15.7-8.15-25.47c-.26-.82.03-1.71.72-2.22l21.47-15.86h-26.51c-.87,0-1.64-.56-1.91-1.39l-8.09-25.32-8.09,25.32c-.27.83-1.04,1.39-1.91,1.39h-26.49Z"/>
</svg>