<?xml version="1.0" encoding="UTF-8"?>
<svg id="Layer_1" data-name="Layer 1" xmlns="http://www.w3.org/2000/svg" viewBox="0 0 533.76 540.24">
  <path d="M533.76,487.94c-.85-1.34-.42-3.17-.7-4.82-3.46-20.39-32.6-39.28-49.38-48.52-27.93-15.36-88.08-16.51-98.48-52.22-1.35-4.63-4.22-14.5,3.14-14.61l.41-.57c.71-2.04-3.14-9.59-4.75-11.46-.1-1.26.2-.5.83-.34,1.46.36,2.37,1.13,2.97-1.06l-5.73-19.69c2.84-.69,4.53,3.75,7.65,3.08,1.35-.95-2.44-13.12-3.09-15.32-1.79-6.06-4.2-11.93-6.01-17.99.98-.85,1.34.96,2.17,1.67.77.65,3.6,2.74,4.41,2.81.89.11,1.26-.83,1.11-1.57l-12.47-24.53c-.12-.8-.04-.76.71-.72,1.4.07,5.27,2.15,5.56-.22.58-4.79-6.74-9.43-6.29-12.44.22-1.46,1.53-1.59.75-4.14-1.32-4.35-9.78-11.31-12.25-15.58-.16-1.15.31-.61.99-.52,1.96.26,3.64,1.33,5.7.26.92-1.33-4.4-6.22-5.51-7.17-1.88-1.61-4.26-2-5.51-5.05-.45-1.15,2.08-.77,2.74-1.31.37-.3.7-1.3.4-1.79-.81-1.31-6.87-4.6-8.58-5.85-1.77-1.29-4.55-2.74-4.17-5.19l5.75,1.44c.15-.15-.6-2.69-.93-3.14-1.35-1.81-7.63-5.57-9.85-7.43-1.77-1.48-8.32-7-8.42-8.9-.02-.42-.04-.81.23-1.17l3.04-2.14c.14-1.8-9.48-7.12-11.42-7.93.92-1.32,5.15-1.47,3.09-3.79-3.88-4.38-17.1-6.29-22.77-6.76-.62-2.11,2.13-1.98,2.68-2.87l-.37-2.31c-3.06-.43-19.91-5.17-20.47-7.57-.13-.57.66-1.79.41-2.6-.83-.04-3.78-.2-4.22-.59-.17-.15-.32-1.33-1.03-2.09-2.22-2.34-6.07-4.04-8.19-6.68,2.97-.06,6.71-.95,4.53-4.53l-20.85-14.66c8.65-3.1-1.06-7.71-4.2-10.17-.39-.31-.88.01-.61-1.1,9.98-.5,4.4-6.1.49-10.33-2.17-2.34-7.79-6.05-8.86-7.46-.91-1.21-3.92-7.91-4.68-9.72-3.28-7.82-3.98-12.89-.63-20.95,3.37-8.09,7.09-7.26,12-12.48,14.6-15.52,17.84-41.74,3.13-58.31-4.89-5.51-12.85-7.13-19.69-8.87h-7.68l-9.97,2.27c-3.08.22-7.46,3.57-9.99,3.94-6.5.95-10.57-2.89-19.66,0-11.81,3.76-12.31,9.85-16.93,19.54-.51,1.07-1.59,1.57-2.06,2.74-1.04,2.6-.39,10.39-3.17,11.22-5.01,1.49-14.57-2.79-20.07-3.26-33.69-2.89-63.93,17.47-92.7,31.59-7.37,3.62-19.2,6.98-24.17,13.74-1.72,2.35-1.13,3.69-1.89,6.27-1.49,1.04-7.28-.67-9.34-.7-2.18-.03-6.31.61-8.61.99-4.42.71-8.58,1.73-12.32,4.24v1.44c3.61.79,6.34-1.16,9.49-1.79,4.97-.98,11.13-1.52,16.18-1.09,1.66.14,6.41.48,5.3,2.87-.47,1.01-13.54,9.79-15.86,11.98-1.38,1.3-3.46,2.79-3.1,4.81,1.38,1.41,11.59-7.38,13.29-8.54,2.05-1.4,7.68-5.97,9.48-3.42,2.1,2.97-2.13,4.76-3.77,6.73-2.47,2.97-5.98,8.39-7.87,11.81-1.9,3.42-3.86,7.28-4.41,11.18.64.08,1.23-.05,1.8-.35,2.19-1.15,6.27-12.76,8.4-15.35,3.17-.67,3.61-4.09,5.39-5.89,1.32-1.34,4.08-3.32,5.47-1.15,2.61,4.05-6.25,8.85-5.71,13.14,4.6,1.2,6.39-7.71,9.36-7.72,2.04,0,2.33,2.84,3.39,4.34.78,1.1,3.18,2.76,3.48,3.73,1.12,3.7-5.97,10.97-4,15.5.58.79.71.21,1.22-.24,2.46-2.18,4.51-8.1,5.27-11.28.2-.19,4.57,2.73,4.71,2.97.52.89-3.66,15.45-4.09,18.04-1.32,7.84-3.65,27.06-1.85,34.19.51,2.02,1.07,2.05,3.15,1.89l1.02-22.73,5.7-27.17c.58-.43,7.04,4.52,7.18,6,.1,4.84-1.06,9.66-1.25,14.46-.09,2.35-.12,7.61,0,9.92.12,2.46,1.32,5.51,1.75,7.99,1.55.29,2.13-.81,2.36-2.19-.85-9.37-.12-18.71,1.01-28.02l8.99,2.97c2.11,12.43.15,26.68,3.61,38.85,1.22,4.31,2.94,2.96,3.24-.8.94-11.86-3.97-24.24-1.45-36.24,2.68-1.81,3.23,8.31,4.56,8.63,2.11.51,1.56-5.09,1.67-6.01.09-.71-.27-.8.68-.68,8.13,1.03,15.83,5.96,23.31,6.98,1.19.16,2.17-.45,3.02-.23.69.18,1.44,1.49,2.4,1.96,4.59,2.24,9.66.11,10.4,7.39.16,1.56-.66,3.31-.49,4.18.09.47,1.99.86,2.35,2.12.31,1.07-1.95,8.34-2.25,10.51-.58,4.16-2.01,14.01,4.01,6.88l1.21.26-9.61,29.73,1.27,1.6c1.47.28,4-2.68,5.46-.61-1.32,3.04-7.04,18.67-5.69,20.79l2.82.55-.08,1.11c-8.96,15.02-20.83,31.69-36.26,40.53-3.99,2.28-16.19,9.2-19.85,10.39-1.27.41-2.61.08-3.72.61-.81.39-.89,1.41-1.41,1.57-.94.29-2.41.02-3.71.5-1.36.49-1.8,1.58-3.13,2.15-5.69,2.47-15.05,3.73-21.49,5.87-3.79,1.26-10.16,3.35-13.52,5.2-1.27.7-2.97,3.3-2.96,4.77.03,3.23,5.49,2.96,5.8,4.31-1.52,1.96-6.87,7.24-6.72,9.56.09,1.35,1.86,2.87,2.38,4.37,1.43,4.18,2.1,16.52,5.75,19.2,4.87,3.58,7.17-5.19,9.65-7.2,1.28-1.04,3.85-1.05,5.02-2.66,1.24,2.4.27,4.48,3.81,4.33,2.03-.08,22.92-5.86,24.88-6.84.83-.42,3.68-3.25,4.08-4.08,1.91-4-.48-11.88,5.86-12.61l1.68,7.2c2.59,3.49,6.58-7.15,7.72-8.61,1.9-2.44,2.56-2.65,5.67-2.37,7.03.63,13.85,4.23,19.88,5.12,9.77,1.44,18.27,7.98,27.81,10.06,2.72.59,5.43-.3,7.81,2.37l-1.92,42.84,3.83-1.44c.6,16.95,12.89,29.69,21.03,43.52,2.91,4.93,5.31,11.36,8.73,15.74.47.6,1.57.75,1.84,1.51.62,1.75-.44,4.36-.82,6.12-.52.74-6.7.63-7.95.78-.89.11-1.59.83-2.47.93-1.08.13-2.19-.49-2.78-.37-.63.12-1.14,1.26-1.49,1.26-.19,0-1.31-1.26-2.45-1.37-1.36-.13-3.82.56-5.74.5-6.44-.2-12.4-.96-18.7-1.45-7.64-.6-18.17.12-25.86,1.01-3.48.41-6.93,1.08-10.33,1.91-.31,1.18.47,3.8-.52,4.52-.42.3-1.79.39-2.59.77-1.9.9-3.65,2.51-5.44,3.2-2.38.92-9.36.95-6.88,5.16.74,1.26,3.92,2.53,4.28,3.91.5,1.93-4.4,4.58-2.36,7.96l9.62,3.69c-4.17.88-13.04,1.02-15.24,5.16-.7,1.32-2.12,5.92-.79,6.8,2.15,1.43,11.39,1.11,12.15,2.01.36,4.21-2.66,6.17,1.52,9.28,7.99,5.94,24.42,4.61,33.57,1.95,3.44-1,9.06-4.35,11.89-4.43,2.92-.09,2.49,1.39,3.95,2.51,1.89,1.44,6.94-.36,9.42-.65,11.26-1.33,22.03-3.45,33.03-3.88,1.92-.08,4.21-1.25,6.27-1.45,2.36-.23,5.48.39,7.65-.02.99-.19,1.76-1.26,2.42-1.26.58,0,1.33.91,2.39.82,1.21-.11,1.73-1.73,2.49-1.87.7-.13,1.62,1.01,2.78.9.8-.08,1.58-1.05,2.55-1.33,2.73-.8,10.9-2.89,13.37-2.95,1.57-.04,3.8.99,5.21.89,1.25-.09,1.97-1.37,2.93-1.44.91-.07,1.67.84,2.82,1,3.01.44,8.49-.54,12.05-.53,7.1.03,10.88.89,16.79-4.28,3.85-3.37,5.75-6.76,3.68-11.86-2.03-4.99-10.97-9.64-1.29-12.61,1.72.11,1.24,9.91,2.62,11.29,1.14.78,9.66-2.73,11.38-3.55,2.66-1.26,5.03-2.99,7.59-4.41,1.72-.33-.28,2.57.27,3.33.51.11,1.03.41,1.57.37,1.35-.11,7.68-5.36,9.67-6.58,1.25-.77,4.03-2.69,5.29-2.87.84-.12.73,0,.73.73,0,2.43-5.49,11.07-4.34,12.22,3.39.39,6.17-1.69,8.89-3.35,6.79-4.13,12.73-10.01,19.71-13.93,3.73-.53,6.21,8.82,10.78,6.99,2.25-4.61,1.72-10.07,2.38-14.89.56-4.1,1.68-8.1,1.92-12.24,1.43-1.49,3.55,4.91,4.79,5.52.77.38,2.16.45,2.9,0,1.3-.78,5.18-15.45,6.63-18.32.37-.73.71-2.1,1.76-2.1,4.01,3.09,7.05,6.96,11.13,10.01,17.79,13.32,41.72,18.15,62.58,24.29,4.53,1.33,7.41,1.77,11.53,3.82,12.6,6.26,26.85,9.09,38.32,17.83,9.05,6.89,18.66,21.23,7.47,30.9-15.08,13.02-64.4,9.84-84.46,11.05-3.2.19-7.12,1.37-10.08,1.46-2.42.08-4.17-1.18-6.24-1.02-1.51.12-2.46,1.29-2.89,1.32-.61.04-2.13-1.61-3.83-1.78-1.94-.2-3.53.62-5.27.52-1.16-.06-2.5-.97-3.31-.88-.82.1-1.52,1.15-1.99,1.18-.63.04-1.49-1.2-2.43-1.3-1.18-.12-2.05,1.06-3.29.97-.95-.07-1.76-1.02-2.92-1-1.08.02-1.81.99-3.34,1.06-2.11.09-4.97-.92-7.19-1.03-41.06-2.02-81.47-2.28-122.36,2.48-38.46,4.47-76.95,11.58-113.77,23.39l-.28,2.93h3.84c27.74-6.23,55.9-11.45,84.24-14.39,25.47-2.64,49.89-1.09,74.87-2.89,2.2-.16,6.11-1.48,7.7-1.46,1.26.02,2.12,1.02,3.35,1.02,1.21,0,2.1-.97,3.37-1.03,1.46-.07,2.61.89,4.29,1.02,3.34.28,7.27-1.11,10.59-1.02,1.78.05,3.27,1.07,4.28,1,.89-.07,1.67-.98,2.44-.95.74.03,1.26,1.01,2.36.96.86-.04,1.7-.94,2.92-1.01,2.09-.11,4.93,1.41,6.78,1.45,1.24.03,1.89-.86,2.85-.93,1.36-.1,2.63,1.12,4.25.95,1.11-.12,1.85-1.07,3.39-1,1.15.05,1.9.82,2.92.97,28.46,4.01,62.63,3.81,91.63,4.37,24.75.48,59.32,2.98,77.53-17.07,3.28-3.61,7.19-10.17,8.06-14.97.27-1.49-.35-3.27.59-4.44v-2.88ZM41.58,90.18c-11.55-1.13-.62-10.53,5.42-9.52,1.55,4.33.02,10.05-5.42,9.52ZM310.56,211.1c-5.16-1.05-12.03-2.49-12.95-8.63,5.93,1.5,10.9,1.94,12.95,8.63ZM287.66,179.06c1.01.66,7.74,5.45,6.58,6.62-4.02-1.13-8.81-2.72-8.63-7.67.87-.12,1.39.62,2.06,1.06ZM270.72,176.33c.42-2.19,4.63,1.77,4.8,2.63-1.14.15-5.06-1.24-4.8-2.63ZM182.05,21.96c1.49-4.59,7.28-12.37,12.59-12.37h9.84c.44,1.88-1.38,1.97-2.13,2.91-.84,1.06-1.16,2.68-1.98,3.78-.73.97-1.72,1.19-2.29,2.08-3.73,5.76-2.09,16.19-7.68,19.63-10.65,6.57-10.42-9.7-8.36-16.03ZM97.7,101.26c-2.98.41-2.22-.07-4.35-.07-1.17,0-3.39,2.63-4.48.93-.74-1.15,0-4.43,2.13-4.68,3.68-.43,4.37,1.14,6.8,1.76.96.25,3.74-.23,3.97.84.35,1.67-3.14,1.09-4.06,1.21ZM130.39,132.87c-1.7,2.35.97,5.61,1.51,8.05.16.72.39,1.29-.62,1.1-6.55-8.09-12.32-17.1-19.43-24.72-3.23-3.46-8.11-6.76-10.82-10.29-.55-.71-1.29-1.42-1.19-2.41.81-.76,7.81,4.41,8.86,5.29,4.92,4.12,8.81,9.49,13.43,13.92l2.18.46-.96-6.72c.96-.14,1.61.25,2.37.74,2.09,1.34,7.41,7.18,9.39,9.32,1.86,2,9.03,9.94,9.72,11.87.12.34.36,1.03-.13,1.08-3.12-1.27-11.36-8.42-14.33-7.71ZM109.49,463.64c-.47-1.66,2.03-4.7,3.3-5.69,4.44-3.46,7.51-2.05,12.24-2.64,7.43-.92,14.69-3.1,22.33-2.39-.13.81-.94.86-1.54,1.09-5.78,2.21-17.17,3.85-21.51,8.24-1.14,1.15-1.29,2.74-2.71,3.52-1.8.54-11.58-.28-12.1-2.14ZM205.94,475.73c-7.29,1.72-15.24,2.2-22.67,3.73-13.26,2.73-23.21,7-37.11,7.05-6.87.03-9.92,3.74-15.35,4.32-1.65.18-3.56-.05-5.28,0-1.89.06-5.04.97-6.97-.24-1.51-.95,2.04-2.94.73-5.05l-6.96-3.6c-.21-1.15.53-.58,1.21-.7,26.83-4.77,50.78-8.52,78.21-9.15,6.26-.14,15.68-.66,21.64,0,.72.08,1.48.1,1.66.97-3.16.45-6,1.93-9.1,2.66ZM274.55,469.94c-2.91,2.07-8.59-.38-11.19-2.23-4.25-3.04,1.04-7.67,2.8-10.95,1.45-.36,1.91,5.05,2.71,6.4,1.23,2.11,4.75,3.38,5.78,5.75.24.56.65.5-.1,1.03ZM339.82,298.68c-.72-.49-2.17-.68-2.3-.82-.26-.31-.1-1.7-.54-2.46-.48-.84-2.96-1.41-3.61-2.27-.61-.81-.7-2.58-1.48-3.79-.88-1.37-5.59-6.43-6.93-7.47-1.29-1.01-2.65-2.08-4.27-1.12-.91,1.46,1.61,5.81,2.43,7.28,4.2,7.5,10.98,14.06,14.79,21.92-1.25,1.12-5.24-4.97-5.99-5.76-.92-.97-5.17-5.39-5.54-2.15-.27,2.32,4.76,8.9,5.75,12.02,2.43,7.68.82,16.08,3.39,23.72-.85.82-3.89-4.35-4.33-5.02-3.16-4.81-8.12-15.74-11.52-19.2-1.11-1.13-2.06-1.87-3.62-.75-2.92,13.43,7.71,22.4,11.31,34.33-.44.77-1.09-.11-1.46-.46-2.4-2.24-5.79-11.13-7.67-12.01-1.74-.81-2.22.1-2.74,1.57-.5,1.41-1.64,6.65-1.59,8.01.1,2.9,2.58,5.57,2.9,8.41-.72.8-2.85-3.34-3.13-3.83-6.65-11.76-10.99-25.63-17.91-37.28-.49-.83-3.1-5.72-3.89-2.74-.2.76,4.04,12.81,4.63,14.95,3.43,12.43,7.35,29.3,5.39,42.06-.28,1.84-1.52,2.05-2.1,3.18-.57,1.09-.43,2.31-1.23,3.57-.45.71-3.59,3.64-4.32,3.11-1.45-4.89-2.83-9.8-3.1-14.9l-2.67-.45v4.32s-3.7-3.78-3.7-3.78c-3.46.25-1.06,2.9-1.06,4.98,0,1.53-.89,2.64-.92,3.82-.18,7.6-1.44,16.97-3.38,24.55-1.35,5.29-4.98,9.18-4.86,14.57,2.7,1.53,8.65-8.21,9.6-7.2-.87,4.07-3.21,7.68-4.47,11.6-.39,1.2-.15,2.34-.44,3.4-.3,1.08-1.85,2.08-1.32,3.71,7.39.13,11.98-7.28,18.24-10.07v7.2c1.17.03,2.19.13,3.34-.26,1.08-.37,8.84-6.48,10.11-7.65,3.86-3.56,5.7-7.7,8.88-11.76l1.46,4.29c1.91,3.13,4.57-2.21,5.01-1.89,2.05,7.3.08,14.38-2.52,21.23-3.13,8.25-8.06,17.37-14.52,23.39l4.05-13.23c.7-3.72,1.68-7.42,2.28-11.15.22-1.38,1.33-7.66.9-8.27-.61-.86-2.03-.7-2.57.36-1.15,2.24-1.24,6.14-2.71,8.8-.76,1.37-1.95,2.05-2.59,3.17-1.23,2.16-7.17,15.19-8.48,15.51-2.85.71-.64-8.67-2.63-9.87-2.44-.57-2.41,2.84-4.32,3.63l-1.68-4.79-2.88,4.31c-1.98-.94-2.41-7.19-3.88-7.63-2.29-.69-1.78,4.55-1.63,5.95.31,2.98,2.03,6.02,2.87,8.88-.98.13-1.6-.8-2.13-1.47-1.92-2.44-5.86-12.24-7.97-13.18-3.02-1.35-4.28,5.44-5.98,6.97-2.39-1.45-2.63-3.77-3.87-5.72-.79-1.25-3.05-3.26-3.32-3.87-.97-2.18,1.07-4.35-2.95-5.22-.92-.2-.59,0-.66.66l-.96,17.04-3.11-2.88c-1.22-1.59-.78-4.71-3.4-5.26-3.53-.74-1.12,3-1.19,4.51-.08,1.93-1.75,4.94-.94,7.47-.44.52-4.1-2.86-4.56-3.35-3.07-3.23-5.53-7.9-8.13-11.55-1.66-.94-5.53-1.63-5.93.86-.4,2.56,1.04,2.86,1.72,4.79.65,1.85.86,3.85,1.52,5.68.3.83,5.45,10.83,2.66,10.77-6.83-5.58-9.5-14.7-15.13-21.33-10.54-12.38-5.23,3.01-4.39,8.71.08.53.8,3.07-.15,3.02-1.45-.07-12.99-14.86-14.55-17.11-20.79-30.03-26.25-62.22-12.32-96.58,9.33-23.03,29.82-31.51,49.63-43.95,5.56-3.49,10.93-7.46,16.59-10.78.9-.53,2.65-.32,1.48-1.92-.13-.18-.37-.31-.58-.38-2.11-.67-11.39,2.68-13.97,3.63-13.11,4.84-25.73,12.11-37.36,19.76l-1.14-.68,3.86-9.06c-3.39-2.65-4.31,3.4-5.79,4.29-.74.45-1.98-.65-2.79-.19-.17.1-1.49,2.24-2.52,3.01-6.94,5.18-15.06,8.21-21.59,14.88-1.88,1.92-8.19,11.93-8.88,12.24-.21.09-1.18.2-1.19-.23-.59-2.45,5.47-8.04,2.39-9.61-2.69-1.38-4.42,4.81-7.19,4.58-.47-.47,3.93-6.56,1.95-7.94-2.27-1.58-11.04,4.31-13.95,4.1-.92-.68,10.01-11.58,9.11-13.89-1.03-1.43-7.99,2-9.43,2.78-4.65,2.5-8.8,6.35-12.88,9.68l-1.18-.72c1.29-1.42.95-3.26.95-5.04-3.77-.44-6.01,3.08-8.68,5-.55.4-6.29,4.34-5.16,1.56.76-1.86,3.98-3.22-.37-4.98-5.71,1.32-12.71.65-18.13,2.79-5.96,2.35-7.65,1.68-13.36,2.96-4.42.99-11.5,5.36-13.53,9.51-2.06,4.22-1.1,10.72-3.64,14.59-1.54,2.35-13.67,8.62-15.37,6.95l.28-3.38c-.87-1.21-5.96-.16-7.33.41-1.99.83-2.88,2.71-4.94,2.97-.51-10.84,11.25-10.58,18.49-13.42,5.07-1.99,6.44-4.66.86-7.6-9.34-4.93-18.33,4.16-26.55,7.59-.43-.38,6-8.64,6.72-9.35,8.19-8.09,22.46-8.04,33.12-10.07.78-2.76,3.47-4.29,4.72-6.32,2.65-4.32,1.53-4.64,6.65-7.74,16.17-9.79,39.48-7.32,52.71-23.12,3.87-4.61,9.83-16.29,9.31-22.26-.16-1.86-1.44-4.41-1.36-6.26.11-2.37,5.63-9.23,2.02-10.27-1.67-.48-3.64,1.39-4.92-.31,1.78-4.46,6.84-9.88,7.55-14.51.34-2.18-.14-4.45.16-6.56.22-1.57,1.22-2.76,1.41-4.35.51-4.22-.4-9.36,0-13.68l4.42,6.37.89,4.63,1.89.03c.05-2.7-.4-5.41,1.03-7.85,1.55-2.63,7.11-4.26,7.54-6.9.03-.2-.16-3.79-.22-3.98-.18-.63-1.46-1.92-1.89-2.84-1.26-2.68-1.39-4.73-1.18-7.69,3.56,1.73,4.88,5.22,7.21,7.91,1.43,1.65,3.8,4.46,4.33.52.4-2.94-2.91-17.09-1.94-18.02,2.16-.42,3.31.88,4.53,2.43,3.09,3.93,4.67,9.5,8.9,12.69,2.98-.04,1.53-3.82.86-5.66-1.48-4.05-5.2-6.93-5.65-11.38l7.53,3.76c.65.07,1.03-.41,1.33-.92,2.71-4.6-6.87-14.44-5.49-15.8,1.64-.2,2.98.84,4.56.96,5,.4,2.59-3.52,4.37-6.75,2.95-.14,5.63.73,8.61.53,1.84-.13,3.18-.15,2.55-2.36l-25.61-13.06-.68.08c-1.31,3.02,3.72,3.98,3.31,7.16-.23.3-6.45-4.48-6.69-1.69-.09.98,3.27,6.16,3.72,7.78.2.71.37,1.29-.62,1.1l-28.26-24.42-1.1,1.14c.14.7.41,1.37.71,2.01,1.91,4.05,6.8,12.28,9.37,16.06,1.43,2.1,3.63,2.53,2.64,6.1-1.1,1.78-6.06-2.37-6.91-3.27-3.21-3.39-4.36-10.1-9.82-10.09l.23,3.84c-9.47-1.72-14.46-10-20.63-16.33-4.03-4.14-9.47-10.43-14.65-12.71-.7-.31-1.69-.12-2.4-.48-.85-.44-.97-1.98-2.37-2.43-1.02-.33-2.13-.03-3.05-.31-2.53-.76-6.99-3.53-9.81-4.59-1.97-.74-6.11-1.15-7.48-2-.49-.31-4.21-6.85-4.43-7.69-1.03-3.96.8-3.93-3.44-6.64-2.85-1.82-4.01-2.5-6.88-.35-6.67,5-.32,5.34,3.12,7.94,6.52,4.94,7.77,17.19,6.49,24.7-.11.63-.47,1.37-1.19,1.2-1.34-.31-5.31-13.43-8.45-12.74-2.65.58-2.8,4.4-2.14,6.53.44,1.43,2.38,2.37,3.08,3.64,2.19,3.93,1.34,15.16-.65,19.36-.8-.54-.69-1.31-.75-2.13-.28-3.89-.08-16.98-4.76-18.3-2.49-.7-2.33,3.06-4.09,4.11-.43-.38-.82-.85-.99-1.4-1.05-3.47.87-5.03-4.55-3.6-.87-.65-.15-3.11-.9-4.27-.5-.78-2.23-.55-2.7-1.25-1.26-1.86,1.79-8.29-4.54-5.3-.22-2.29,1.27-4.2,1.34-6.48.09-3.07-.69-6.75-.4-10.09.07-.79.08-1.58.46-2.3,5.4-2.99,11.29-5.02,16.78-7.81,11.89-6.05,22-14.64,35.48-17.31,5.23-1.04,10.56-1.18,15.85-2.38,7.62-1.73,13.67-5.07,21.92-4.47,4.77.35,9.77,2.49,14.54,3.22,11.37,1.73,22.89-.52,34.33.23,3.46,2.51,2.24,8.8,1.04,12.37-.95,2.82-5.15,7.32-1.66,9.84,3.2,2.3,10.05-1.37,11.87.38.64.62,2.09,5.36,2.02,6.33-.16,2.29-5.66,5.51-3.59,8.91,1.07,1.77,13.45,4.88,16.56,7.92.94.92,3.71,5.01,3.85,6.24.15,1.29-1.14.42-1.93.94-2.29,1.54,4.65,5.22,5.28,6.73.2,1.05-.48.71-1.21.73-1.45.04-4.46-1.38-4.54.68-.11,2.82,8.52,5.76,10.33,7.45.51.48,6.18,9.48,6.27,10.07.04,1.12-1.58,1.6-1.96,2.43-1.46,3.16,3.55,6.3,2.81,9.46-.75,1.75-6.62-.02-6.41,3.68.17,3.06,8.18,12.65,7.68,13.24-.13.15-1.17.37-1.68.05-2.92-1.84-5.9-8.16-9.2-10.06-1.59-.92-2.42-.19-2.57,1.58,2,3.58,4.43,6.86,6.33,10.51,3.38,6.47,5.62,13.67,9.26,20.01,1.06,1.85,2.19,4.96,4.74,4.34,2-.49-1.48-5.58-.64-6.75,2.32,2.18,4.06,1.33,6.71.48.83,3.32,4.39,13.43,7.96,13.9,1.48.2,2.93-.62,4.05-.28,1.81.56,4.38,3.89,6.23,4.85l-18-.72c-1.25.03-1.6,1.51-.99,2.42.34.5,10.23,2.96,11.67,3.21,1.72.3,3.44-.06,5.12.16,3.14.42,18.42,8.22,20.68,10.51,1.86,1.87,3.09,5.8,4.84,8.12,3.86,5.11,11.07,9.27,16.92,11.63-.25,4.48.37,7.71,2.57,11.58,1.8,3.17,7.21,9.97,9.03,3.21.22-.16,4.59,1.58,5.05,1.91,1.13.8,1.85,2.76,2.86,3.86,2.26,2.44,6.5,5.25,7.88,8,.61,1.22.05,2.15.65,3.62.89,2.16,3.97,5.06,4.68,6.86.23.58-.13.95-.71.71-1.3-.56-4.57-6-6.51-4.59-1.67,3.46,1.86,6.82,1.46,10.35-.58.6-6.37-3.26-7.35-3.92-8.13-5.53-18.47-16.16-27.06-20-3.68-1.64-2.63,1.52-.64,3.55,5.92,6.08,14.66,10.98,21.15,16.77,5.37,4.8,20.1,20.31,21.75,26.72.52,2.02-.01,3.92,1.29,5.67-1.16.87-4.46-4.11-5.78-5.02Z"/>
  <path d="M131.9,56.76c-5.48.56-18.19,3.93-17.69,11.12.33,4.7,8.81,4.87,12.18,6.57,3.13,1.59,3.99,4.65,7.2,6.24,5.26,2.59,10.95,1.11,15.83-1.62,2.02-1.13,6.49-5.67,7.52-5.96,2.65-.73,10.08,2.83,4.8-3.77-6.9-8.62-18.9-13.7-29.85-12.59Z"/>
  <path d="M302.4,238.93c1.43-1.36-7.76-7.32-8.64-8.4l3.87-.46-.17-2.52c-8.24-5.64-15.6-13.22-25.04-16.95-1.39-.55-3.03-.59-4.59-1.17-1.83-.68-3.31-2.77-5.76-2.16l.49,2.63,16.79,12c-3.49.84-7.07-1.19-10.56.24l1.3,2.89,30.61,13.9h1.68Z"/>
  <path d="M284.54,243.02c.17-2.15-14.32-12.34-16.74-13.88-4.8-3.05-16.26-9.48-21.84-7.04-1.53.67-1.42,1.87-.07,2.59,2.02,1.08,9.65,1.98,10.68,3.68,1.25,2.45-1.99,8.11-.13,9.97,1.07,1.07,21.05,5.58,23.7,5.81,1.56.14,3.53.5,4.4-1.13Z"/>
  <path d="M117.6,75.57c-.41-1.75-7.91-2.28-9.47-3.01-1.3-.61-1.57-2.16-2.36-2.43-2.69-.93-17.06,3.12-18.18,5.67-.82,1.87,5.31,5.66,8.12,4.73.63-.21.68-1.04.92-1.2,2.51-1.69,9.47-.89,12.6-1.09,1.46-.09,8.88-.55,8.38-2.65Z"/>
  <path d="M223.27,164.16c-1.43.89-.63,9.73.17,11.45.97,2.09,2.46,2.03,3.8,3.4,1.35,1.38,4.99,8.54,6.77,8.52l1.22-2.07-3.87-6.5c2.64,1.23,5.04,2.75,8.16,2.39,0-2.91-3.18-4.43-4.8-6.48-1.7-2.15-2.92-4.72-5.03-6.96-1.31-1.39-4.3-5.08-6.42-3.76Z"/>
  <path d="M238.48,397.41c.26-1.12-2.92-9.94-3.67-11.51-1.01-2.1-2.82-3.89-3.59-6-1.08-2.92-.81-12-2.46-13.38-1.85-1.54-2.31.81-2.56,2.33-.55,3.34-1,8.53,0,11.75.48,1.58,1.64,1.94,2.16,3.12.51,1.17.41,2.74.85,3.95,1.37,3.76,4.72,6.65,6.12,10.43,1.02.89,2.83.71,3.16-.69Z"/>
  <path d="M221.26,198.18l-2.86-.03c-.38.38-.39,9.32-.54,10.74-.27,2.61-1.96,5.85-1.88,8.2.04,1.15,3.94,9.96,4.41,10.25.5.31,2.18.19,2.59-.38,1.74-9.52-.61-19.31-1.72-28.78Z"/>
  <path d="M209.16,212.65c-2.36-2.52-10.1,7.48-7.5,12.55.75,1.46,2.77,2.32,3.71,3.49,1.7,2.11,2.08,5.76,5.83,6.41.71-5.89-.68-11.67-1.43-17.51-.18-1.36.38-3.89-.6-4.93Z"/>
  <path d="M139.69,106.75c-5.02-4.47-12.46-7.66-18.74-9.58-1.42-.43-2.85-2.06-4.44-1.62-.47.13-1.14.76-1.26,1.22-.52,2.06,3.57,2.72,4.91,3.58,4.35,2.78,8.15,6.12,12.95,8.64,1.87.98,5.46,3.25,7.38,2.44,3.13-1.3.79-3.27-.81-4.69Z"/>
  <path d="M202.61,97.65c.52-.82-.05-1.72-.52-2.41-1.41-2.06-7.71-7.98-9.85-9.82-2.14-1.83-9.81-7.54-12.39-6.68-1.71.57-.42,2.9.39,3.81,2.99,3.35,11.99,10.48,15.87,13.4,1.78,1.34,4.82,4.35,6.51,1.7Z"/>
  <path d="M231.22,220.6c-.63-2.21-.98-5.31-3.46-6.13-1.48.31-.34,7.77-.11,9.22.7,4.54,2.22,10.81,3.36,15.36.89,3.54,3.23,6.31,2.35,10.61l1.12.82c2.37-.01,1.73-4.82,1.55-6.36-.76-6.59-2.98-17.07-4.8-23.51Z"/>
  <path d="M207.84,191.43c.21-5.33-1.1-10.14-2.87-15.12-.38-1.07-3.15-7.93-3.48-8.27-.41-.42-1.35-.61-1.95-.53-1.5.37-2.27,4.1-2.29,5.45-.06,3.19,4.94,12.78,6.85,15.74.93,1.45,1.78,2.97,3.75,2.72Z"/>
  <path d="M160.8,234.14l2.4-12.95c-2.74-.53-3.36,2.45-4.06,4.34-.82,2.22-3.09,9.98-1.74,11.78.95,1.27,2.04.14,3.11.25,5.7.57,11.7,2.61,17.51.85l-.02-1.78c-5.31-2.82-11.42-1.78-17.2-2.47Z"/>
  <path d="M179,208.94c0,1.29.63,2.36.5,3.78-.29,3.24-2.16,6.5-1.95,10.62.11,2.03,1.54,2.3,2.66.69,2.93-7.36,7.08-14.21,6.51-22.52-3.32-.95-7.73,4.63-7.72,7.44Z"/>
  <path d="M219,383.95c-.74-2.78,1.39-8.76-2.38-9.62-1.03-.24-2.18.08-3.16-.2-.99-.28-2.52-2.8-4.2-1.61-2.04,1.45,1.25,3.11,1.88,3.93,1.05,1.38,1.18,3.66,2.06,5.14.71,1.19,2.44,2.12,2.93,3.31.46,1.11.21,2.27.59,3.25.49,1.26,3.11,7.03,5.02,5.73.91-2.06.18-4.7-.69-6.7-.48-1.11-1.81-2.33-2.05-3.23Z"/>
  <path d="M207.09,358.85c.67-2.1,3.69-3.38,3.87-7.12.1-2-2-2.23-2.88-3.41-.81-1.09-.66-3.19-2.43-3.37-3.19-.33-.73,3.32-.83,4.5-.08.92-1.17,2.32-1.32,3.91-.34,3.63.27,3.45-.72,7.44-.67,2.71-1.18,5.42-.23,8.15,2.03,1.33,3.84-5.8,4.19-7.07.26-.93,0-2.02.33-3.03Z"/>
  <path d="M207.61,381.6c-3.24-.03-.9,5.62-.19,7.21,1.01,2.23,6.43,10.44,8.1,12.05,1.68,1.61,2.92,1.77,2.92-.95,0-3-7.99-18.28-10.84-18.31Z"/>
  <path d="M195.01,354.46c-1.19,4.56-.66,12.28-.58,17.11.03,1.55,1.48,2.58,2.41,1.41,2.03-2.55,4.14-19.72,2.24-21.65-2.19-2.22-3.62,1.42-4.07,3.13Z"/>
  <path d="M246.49,209.65c1.45,1.32,9.65,8.33,11.27,6.73.46-2.93-2.14-5-4.09-6.7-1.23-1.07-9.78-7.43-10.65-7.61-1.79-.38-2.58.67-1.81,2.31.3.64,4.4,4.46,5.29,5.27Z"/>
  <path d="M221.53,351.22c-1.87,1.48-6.91,8.7-7.02,10.78-.04.82.53,1.76.41,2.35-.09.5-1.29,1.37-1.6,2.66-.31,1.28-.22,2.58-.2,3.87,3.11-4.1,6.52-8.87,8.89-13.42,1.21-2.32,5.24-10.75-.48-6.23Z"/>
  <path d="M257.3,371.54c-.11-1.03.39-2.02.29-2.74-.32-2.29-2.68-16.52-6.02-10.66,1.11,3.32.67,6.95,1.73,10.26.33,1.04,1.13,1.8,1.47,2.85.96,2.96.09,8.58,4.44,8.27.81-2.93-1.65-5.5-1.9-7.98Z"/>
  <path d="M196.44,229.94c-.46.47-.57,1.32-.56,1.97.05,2.26,2.59,13.8,3.79,15.42,1.61,2.19,3.41,1.13,3.39-1.41-.02-2.2-2.36-11.86-3.23-14.09-.52-1.33-1.87-3.45-3.38-1.89Z"/>
  <path d="M226.24,183.35c-1.01.07-1.69.97-1.54,1.98.41,2.72,11.23,13.26,15.3,11.38.12-.81-.16-1.41-.54-2.09-.8-1.41-12.15-11.17-13.22-11.27Z"/>
  <path d="M163.91,61.9c-1.55-1.2-7.28-5.18-9.01-4.74-.65.17-1.24,1.15-1.76,1.61l14.71,10.73,1.15-.62c1.58-2.07-3.5-5.75-5.09-6.98Z"/>
  <path d="M262.91,258.68c-.39.11-1.18.76-1.21,1.11-.19,2.46,13.86,9.85,15.2,5.69.17-.57.14-1.09-.18-1.61-.96-1.56-11.88-5.74-13.81-5.2Z"/>
  <path d="M96.72,84.44l-.16,2.33c.19.31,6.18,2.38,6.88,2.47,2.16.29,5.36,0,7.68,0,.69,0,1.2-2.33.24-3.13-1.36-1.13-13.55-3.56-14.65-1.68Z"/>
  <path d="M129.85,82.02c-2.07.03-3.45,1.53-1.67,3.11,1.77,1.57,15.14,4.04,16.3,2.66.1-.72-.01-1.13-.45-1.71-1.05-1.4-12.12-4.09-14.19-4.06Z"/>
  <path d="M162.61,294.23c-.76,1.85-.2,4.14,2.05,3.52,1.25-.34,7.68-7.59,8.34-8.98.48-1.01.79-1.68.24-2.77-2.93-1.73-9.69,5.96-10.63,8.23Z"/>
  <path d="M329.54,262.95c3.58-.02.08-3.52-1.25-4.55-.9-.7-9.61-5.97-10.2-5.94-.64.03-1.79.79-1.77,1.57-.07,2.73,10.71,8.94,13.22,8.92Z"/>
  <path d="M259.03,383.39c-1.19.2-2.18,2.8-2.18,3.98,0,1.54,1.54,10.25,2.37,11.08.38.38,1.06.67,1.61.7,1.98-.45.98-7.64.77-9.31-.18-1.4-.6-6.78-2.57-6.45Z"/>
  <path d="M193.28,119.49c4.81.62,9.12,2.53,14.08,1.9-.02-.78.18-1.69-.24-2.4-.79-1.32-17.77-5.9-13.85.5Z"/>
  <path d="M217.89,167.23c.64.22,1.28.27,1.94.21.58-3.39-4.66-8.42-7.19-10.32-1.27-.96-2.46-1.92-3.89-.51-.52.63-.55.97-.21,1.71.3.66,8.62,8.66,9.35,8.91Z"/>
  <path d="M282.57,338.78c-.93.43-1.29,1.03-1.28,2.05.01,1.44,3.38,13.42,5.74,11.34.75-2.26-1.12-14.22-4.46-13.39Z"/>
  <path d="M236.61,410.43c-.63.52-.45,1.14-.36,1.83.22,1.63,5.09,11.39,7.1,9.96.85-2.26-.3-4.95-1.35-7.04-.69-1.37-3.43-6.13-5.4-4.74Z"/>
  <path d="M207.16,313.82c.57-.86,1.5-1.37,2.04-2.28,1.07-1.8,1.61-3.79,2.46-5.68-.59-.87-1.57-.91-2.52-.62-1.16.35-3.33,3.35-3.59,4.57-.22,1.06.1,2.32-.18,3.18-.34,1.04-3.73,1.62-.64,4.63,1.26.3,1.93-3.03,2.43-3.8Z"/>
  <path d="M129.95,54.1c1.74.44,9.52,1.06,10.69.35,1.13-.68,1.36-2.04-.25-2.64-2.1-.79-7.29-1.25-9.48-.85-2.4.44-4.18,2.32-.96,3.13Z"/>
  <path d="M227.42,239.76c-.38-1.79-2.4-3.79-1.82-6.11-5.14.2-1.7,3.78-1.17,6.21.34,1.55.34,9.19,3.8,8.18,1.99-.58-.41-3.75-.6-4.66-.25-1.2.05-2.43-.21-3.63Z"/>
  <path d="M224.04,127.55c.87.14,1.58-.33,2.22-.26,1.28.14,3.13,2.07,5.1,1.3l-.07-2.33c-1.3-.89-3.23-.23-4.42-.62-.67-.22-.89-1.32-1.58-1.78-1.63-1.09-5.01-2.2-6.87-1.47-1.51,2.12,4.18,4.93,5.61,5.16Z"/>
  <path d="M238.59,291.02c-1.74,1.21-2.58,3.49-5.29,3.11l-.02,2.86c2.12.53,3.03-1.36,4.46-2.02,1.66-.76,9.24-2.57,7.33-5.21-1.11-1.54-5.2.37-6.48,1.26Z"/>
  <path d="M163.24,56.17c-1.14,2.3,1.82,3.71,3.55,4.77,1.57.96,3.93,3.04,5.53,1.17.59-2-6.81-6.93-9.08-5.95Z"/>
  <path d="M298.31,298.44c-1.77-1.64-2.84-6.38-6.26-4.36-1.56,2.15,3.03,3.99,4.13,5.05,1.68,1.63,1.66,4.13,4.78,3.61.01-.92.07-2.56-.6-3.24-.38-.38-1.42-.48-2.05-1.06Z"/>
  <path d="M151.99,79.24c-3.36,2.78,4.38,5.65,5.72,3.8,1.69-2.33-3.79-4.67-5.72-3.8Z"/>
  <path d="M63.95,100.15c2.28,2.16,6.37-2.47,4.74-4.47-2.25-2.75-6.48,2.83-4.74,4.47Z"/>
  <path d="M64.2,90.8c-2.79-1.71-5.47.74-4.48,3.75,2.25,2.07,6.4-1.88,4.48-3.75Z"/>
  <path d="M241.45,241.81l-.97,3.84c2.38.48,4.95.94,4.1-2.41l-3.13-1.43Z"/>
</svg>