<?xml version="1.0" encoding="UTF-8"?>
<svg id="Layer_1" data-name="Layer 1" xmlns="http://www.w3.org/2000/svg" viewBox="0 0 451.34 530.55">
  <defs>
    <style>
      .cls-1 {
        fill: #c0c0bb;
      }

      .cls-2 {
        fill: #959594;
      }

      .cls-3 {
        fill: #b6b7ae;
      }

      .cls-4 {
        fill: #191b16;
      }

      .cls-5 {
        fill: #151715;
      }

      .cls-6 {
        fill: #90918b;
      }

      .cls-7 {
        fill: #babab8;
      }

      .cls-8 {
        fill: #919590;
      }

      .cls-9 {
        fill: #1e1f1c;
      }

      .cls-10 {
        fill: #c2c3b9;
      }

      .cls-11 {
        fill: #acacaa;
      }

      .cls-12 {
        fill: #bebeb9;
      }

      .cls-13 {
        fill: #9d9e97;
      }

      .cls-14 {
        fill: #909089;
      }

      .cls-15 {
        fill: #1f201e;
      }

      .cls-16 {
        fill: #bebebd;
      }

      .cls-17 {
        fill: #181818;
      }

      .cls-18 {
        fill: #a3a49b;
      }

      .cls-19 {
        fill: #9e9e9a;
      }

      .cls-20 {
        fill: #6b6c68;
      }
    </style>
  </defs>
  <path class="cls-3" d="M11.94,169.32l.47-.26c.5,45.21.69,89.2.57,131.98-.36.89-.82,1.64-1.38,2.27,5.46.18,10.64.02,15.79-1.79,47.67-.31,95.44-.19,143.31.35,62.67-.49,125.7-.83,188.88-.19l.39,1.11c13.64.53,27.49.88,41.56,1.07,2.22-.38,15.9,2.6,16.2,3.46.38,1.08.56,1.67-.72,1.89-8.48.59-16.78.92-24.9.96l-6.8.61c-47.95.57-95.48.64-142.58.23-8.74,1.7-18.1,2.13-28.07,1.27-69.06,1.17-140.21,1.11-210.32-1-5.04,2.72-1.72,5.93,3.34,3.24,71.43-.34,143.9.27,214.58.91,1.51.04,2.05,3.49,1.42,4.36-1.3-.97-.3-3.26-2.38-3.08-69.9-.11-139.66-1.31-209.59-.39-.96.01-1.86-.39-2.6-.37-2.84.08-7.27,3.38-8.73-.99-.69-2.07-.59-13.59,1.5-14.64,1.75-.88,2.82.45,4.19.64,1.59.22,5.52.44,5.88-1.51v-130.14h-.01Z"/>
  <path class="cls-13" d="M449.85,314.99c-.78-.58-1.12-1.67-1.01-3.28-8.14-.58-16.26-.42-24.61.23-8.8.03-17.43-.04-25.9-.22-5.54,1.52-10.2,2.75-15.59.59l-2.05.84c-3.64.18-7.29.32-10.94.44-4.3,2.38-10.07,1.94-14.83.97-.39-.79-.86-.95-1.75-.95-3.7,1.61-7.75,2.22-12.17,1.86,33.96.64,67.67.45,101.12-.57,2.21-.14,4.61.92,5.98,2.28.38.12.38.27,0,.44-2.14.19-2.75-.71-4.56-.91-68.12.27-136.24-.27-204.35.05-2.14.01-4.41-.47-6.69.05-.92,2.37-2.04,4.34-2.26,6.93-.12.38-.27.38-.44,0-.75-2.16-.47-4.56.82-7.2-.15-.33-7.59-.71-5.65,1.44.98,1.74,1.06,3.73.26,5.98l-.24,13.35c.84.25.84.63,0,.87-.12.38-.27.38-.44,0-.36-.99-.36-2.07,0-3.06-.05-5.44.49-10.14-.87-15.31-.28-1.08.37-3.15-1.53-3.5-7.15-.13-14.31.17-21.45.02-64.16-1.34-128.63-.83-192.94-.92-1.42.34-5.66,1.98-6.25.19-.88-2.65-.05-4.8,2.8-5.17,53.98,1.48,107.93,2.26,161.83,1.49,15.37-.22,30.78.2,45.94-.44,7.63-.32,16.17.69,23.64.01,2.17-.2,4.78-1.34,7-1.34,6.84-.01,13.72.47,20.56.39,43.09-.52,85.73-.15,128.84-.35,16.97-.67,33.82-1.28,50.55-1.84,1.54-.06,5.9-.14,7.12.5,1.53.8,1.5,5.57.08,6.15h-.02Z"/>
  <path class="cls-18" d="M443.29,17.52c.37.11.36.25,0,.44-.47,1.27-.31,1.42-.44,2.62-.97,12.46-1.26,25.14-.87,38.06-.1,80.57-.49,161.14-.46,241.71.42,3.62,5.25-.51,7.71,1.05.99.63,1.81,5,1.94,6.37.26,2.91.7,9.5-3.06,9.84v-.44c-.01-.91.82-2.03,1.75-2.19.76-.97.66-4.29.04-5.07-.78-.99-8.11-.67-9.9-.63-15.96.38-31.82.82-47.89.89.45-.73,1.66-.44,2.4-.45,7.66-.1,15.54.75,22.97-1.31-.07-.65-1.62-.97-2.17-1.11-3.35-.87-7.81-2.16-11.16-2.41-13.36-.98-27.39.11-40.71-1.29-.86-.09-4.43.16-4.59,0-.21-.22.35-1.65-.25-1.76-33.68.03-67.36-.02-101.05.03-44.63.07-89.35,1.93-133.83-.04-31.72-1.4-64.45,1.11-96.28-.02-5.39,3.63-14.14,1.72-20.56,2.63-.98.14-1.91,1.08-2.55.88-.47-.15-.7-1.07-1.19-1.47-.56-.46-2.59-.55-1.51-2.02,1.47-2.02,8.62,3.47,10.33-.61,1.49-3.55.91-13.26.86-17.55-.41-37.27-.06-74.67-.45-111.98,0-.74.28-1.95-.45-2.4v-15.75c-.13-23.03-.27-45.63-.44-67.81v-3.06c.26-7.51.4-15.24.44-23.18-.18-9.45-.18-19.16-.06-28.46,0-.48.06-1.14.49-1.29,1.1,12.16,1.53,24.35,1.3,36.58-.27,78.7-.05,156.7.67,234.01,125.08-.49,268.7-.45,404.78.84,6.83.07,13.68.12,20.49.07.03,0,.22-.53.22-.57-.14-77.35.09-154.79.86-232.07-.66-15.57-.45-31.11.63-46.62.11-1.67.34-3.25,1.53-4.5.12-.38.27-.38.44,0l.02.04Z"/>
  <path class="cls-11" d="M224.55,338.18c.68,21.66.39,42.69-.88,63.08.23.88,4.9,1.35,4.84-.3-.35-9.52-.21-19.22.41-29.1.12-.38.27-.38.44,0,.03,8.13-1.01,20.21-.02,27.8.63,4.8,6.53,4.94,7.01,8.34.39,2.79.57,3.22,2.44,5.83,11.09,15.47,24.62,30.92,36.49,45.75,17.07,21.33,35.1,42.14,52.07,63.64-.97,2.08-2.6-.21-3.4-1.44-2.08-.26-4.63-.89-3.64-3.5-1.04-.34-1.89-1.03-2.62-1.82l-12.08-13.37c-7.32-8.89-3.74-3.4-.63,1.19l-.37,1.01-31.79-39.31c-1.05-.36-3.9,1.2-5.06,1.81-6.47,3.37-12.47,7.74-18.77,11.42-2.65,1.55-17.83,10.63-19.45,10.77-.95.09-1.74-.42-2.59-.43-8.87-.15-9.67-.94-16.99-5.32-3.52-2.11-6.93-4.66-10.35-6.93.38-.65.77-.89,1.37-.49-6.77-4.53-13.53-9.04-20.24-13.01-5.35-3.03-3.68-6.01.57-9.1,12.15-14.61,24.97-29.27,37.23-43.23.64.1,1.34.02,2.08-.23.58-1.68,3.93-.07,2.88,1.26-.32,4.03-.56,8.13-.69,12.3-.12.38-.27.38-.44,0-.93-3.89-1-7.86-.83-11.83-.61-1.49-9.39,9.67-9.81,10.32l-31.89,36.41c12.68,8.48,25.74,17.18,38.73,25.56,2.2,1.42,2.56-6.85,2.47-8.02l-.02-10.67.91-.65.46-.12c.31,5.86.33,11.77.06,17.71.84.68.76,1.99.53,3.04,1.32.52,2.63.72,3.92.59,3.98,2.52,2.18.88-.45-.69l-.46-1.09c.74-.93,1.43-1.87,2.06-2.82l1.04.34c0,2.08.61,2.99,1.81,2.73,10.41-6.68,21.01-13.04,31.8-19.07l6.06-4.28c-12.2-15.94-24.76-32.07-37.7-48.38l-.94-.53c-.06,15.79-.55,31.61-1.45,47.44l-.62,1.63c-.2-16.09-.08-31.96.39-47.6-.49-3.02-.28-5.87,3.4-3.57.82.14,2.9-2.15,2.82-3.17-2.52,2.74-4.43,1.82-7.32.35-1.34-.03-2.26-.41-2.79-1.13-2.75-.33-6.73.37-6.55,3.91-5.26,7.35-11.2,14.27-17.8,20.75l-1.46.71-.66-.93c.04-1.21,5.66-8.99,6.89-9.94.74.35,1.35-.1,1.85-1.33,3.05-3.01,6.62-7.38,8.86-10.93-.32-2.26.26-3.74,1.74-4.44,3.06-.68,4.71-2.13,4.93-4.37.37-.88.76-1.3.89-2.4,1.63-14.4-1.07-31.74.88-46.36,0-4.82-.08-9.64-.03-14.46,0-.74-.28-1.94.45-2.4v3.06h.01Z"/>
  <path class="cls-19" d="M224.55,407.29l-.56.93c-1.31-.24-6.42,1.98-3.86,2.11l.48.9c-2.07.8-2.76,2.48-4.14,3.95-4.39,4.68-8.73,9.86-12.92,14.64-7.39,8.44-14.52,16.93-21.58,25.44-1.3,1.56-4.69,2.93-3.57,5.39.7,1.53,6.56,4.58,8.29,5.71,3.12,2.03,6.51,4.16,9.25,6.04,3.9,2.68,7.86,5.29,11.76,7.94.39.26,5.63,2.58,4.59,3.5-2.16.34-3.48-2.01-5.09-3-2.03-1.24-5.36-3.09-7.59-3.56l-22.33-13.77c-.59-.4-1.12-.3-1.72-.01s-4.26,4.19-5.05,5.03c-14.27,15.28-27.52,33.03-41.99,47.69-1.37,1.39-5.31,3.83-5.52,4.11-.53.7-.28,1.67-.63,2.43-.18.4-3.05,3.7-3.47,3.98-1.63,1.09-5.47-1.76-4.87-3.98.27-.99,1.02-1.2,1.57-1.73.91-1.62,3.71-4.15,5.34-2.7,17.55-19.46,35.02-39.29,52.41-59.49,3.21-4.06,6.86-7.54,10.94-10.43,1.86-2.55,4.05-4.9,6.57-7.06.8-2.24,2.12-3.83,4.37-4.75-.58-1.43,2.02-4.34,3.5-3.94,4.13-4.45,8-8.75,11.83-13.32,3-3.56,5.79-6.19,7.53-10.41.79-1.91,4.69-2.49,6.44-1.65h.02Z"/>
  <path class="cls-1" d="M222.36,400.73c1.46,3.92-5.13,3.96-5.9,5.7-.6,1.38.1,3.05-.56,4.69-.62,1.55-3.75,3.42-4.68,4.94-1.76,2.87-.66,2.17-3.54,4.78-.57.52-.97,1.56-1.38,1.81-.68.41-1.71-.16-1.84-.03-.07.07-.21,1.21-.62,1.8-1.74,2.52-4.46,5.18-5.1,8.24-1.33,1.44-2.22,2.4-3.5,3.94l-1.75,1c-3.05,3.61-6.11,7.21-9.19,10.82-20.84,21.56-39.95,46.28-60.58,68.25-.48.51-2.02,2.23-2.42,2.43-.86.44-1.37-1-2.74-.63-.26.07-2.5,2.14-2.94,2.57.19-2.1,2.7-2.6,3.72-3.5,4.91-4.37,9.6-11.15,14.05-16.13,23.83-26.72,48.36-53.77,71.92-80.75,1.73-1.98,9.36-9.53,9.86-11.14.85-2.71-1.46-2.89,2.43-5,2.81-1.53,3.3-.32,4.76-3.77v-.02Z"/>
  <path class="cls-8" d="M226.74,1.34c2.65-.26,4.84.04,6.39,2.44-1.48,1.41-3.45,4.1-1.63,5.97,6.3-.01,12.58.1,18.86.34.64-1.11,1.11-1.11,1.75,0,12.53.27,25.15.35,37.86.25,6.85.35,13.46.35,20.28.23,2.02-.03,4.02-.11,6.04-.2,1.75-.07,2.85-.28,4.21-.96,8.21.24,16.42.39,24.64.44l3.21,1.11c.57.06,1.17-.03,1.75,0,22.83.69,46.31,1.13,70.43,1.31h.44c7.34.11,14.74.35,22.22.72l.53.59c1.94.68,1.67,2.62,0,3.5.48.53.24.65-.44.44h-.44c-.58-.55-.81-1.54-.7-2.95-29.29-1.13-58.38-1.58-87.29-1.35-3.67.24-6.97-.33-9.92-1.69-36.28.96-74.16.66-111.04.32-1.45,0-3.2-.35-4.26-1.38-1.03.59-2.24.71-3.65.36l-1.21.74c-39.8.74-80.88,1-119.63.2l-2.41.27c-.51,1.94-1.75,1.92-3.72-.05l-3.4,1.02c-24.25.33-48.53.5-72.85.53-3.63.37-7.26.59-10.89.67.29,1.33.01,2.14-.83,2.43-1.11-.94-1.49-3.05,0-3.94h.44c.14-.03.3.02.44,0l.53-.51c6.65-.38,13.43-.46,20.03.07,1.45-.32,2.92-.32,4.37,0,3.47-.12,6.97-.27,10.5-.44,4.95-.35,9.92-.33,14.87,0,5.28.01,10.38-.13,15.31-.44,6.13.02,12.26-.13,18.37-.44.73-.13,1.45-.3,2.19-.44,2.49-.06,4.97-.21,7.44-.44,2.6-.37,5.29-.43,7.87,0,2.44-.12,4.91-.27,7.44-.44l16.26-.9c1.42-.02,2.41.07,3.2,1.36l13.14-.19,1.1.51,48.11-.34c1.57-1.26,3.64-1.23,5.25,0,5.41-.27,10.84-.33,16.3-.19,1.64-.47,1.18-5.65-.4-6.35.72-2.95,1.69-3.69,2.91-2.21l.03.03Z"/>
  <path class="cls-16" d="M227.17,1.34h-.44c-.59-.13-1.15-.04-1.75-.44.23.79-.48,1.82-.45,2.37,0,.26.8.2.88.54.21.87.34,5.54-.4,6.08-1.19.87-14.56-.26-17.09.19-.67-1.06.44-1.24,1.42-1.34l14.44.07c.3-.02.12-3.03-.18-3.18-18.26,1.91-36.96,3.1-56.09,3.56l28.71.08c2.17.02,4.32.42,6.45.81l-63.17.9c-.65-3.27-4.98-1.39-7.47-1.32-3.71.1-7.46-.05-11.17-.02h-1.31l7.64-.89c31.84-.91,63.48-3.75,95.3-5.32,1.95-.57,2.27-5.83,4.68-2.1h0Z"/>
  <path class="cls-7" d="M348.36,10.96c-2.28-.26-4.29-1.33-6.77-1.35-6.2-.04-12.55.6-18.84.49-.78-.01-1.81-.51-2.13-.48-.4.04-.06,1.14-1.76,1.36-11.43,1.44-25.91-1.15-37.67-.01-8.8-.9-17.79-.34-26.67-.45-.74,0-1.95.28-2.4-.45,1.39-.45,2.81-.73,4.27-.83l21.33-.11c-15.01-.5-29.52-1.69-43.52-3.57-1.95-.2-2.31,1.66-2.16,3.19l16.9-.02c.97.05,1.67.22,1.42,1.34l-18.97-.06c-2.61-1.41,1.04-6.36,1.01-6.73-.11-1.22-4.62-1.74-5.66-1.96h.44c4.44-1.58,4.07.92,6.32,2.21,1.71.98,9.63.26,12.29.4,22.46,1.16,44.93,3.47,67.36,4.83,8.16.49,16.31.99,24.51.9,3.53-.04,7.46-1.34,10.7,1.29h0Z"/>
  <path class="cls-2" d="M304.61,505.28c-.89-1.3-3.71-5.44-4.16-6.58-.29-.72.37-1.53.23-1.72-.08-.11-1.67-.21-2.08-.56-.15-.13-2.04-2.97-2.2-3.27-.23-.44-.75-2.03-.53-2.3,2.63.89,3.37,2.93,4.88,4.96,4.93,6.63,11.15,12.52,16.55,18.88,1.08,1.27,2.59,3.12,4.37,2.84.19,1.04-1.47,1.37-.47,2.43.87.92,2.33.62,3.2,1.07.79.42,1.17,2.62,2.96,2.18.62.78,1.62,1.47,2.08,2.51,2.18,4.97-3.91,6.85-6.4,2.03-.54-1.04-.33-2.12-.9-3.04-.73-1.19-3.12-1.78-4.21-2.79-3.43-3.17-10.5-12.55-13.32-16.65h0Z"/>
  <path class="cls-7" d="M443.29,17.96c.05-.14-.06-.35,0-.44.12-.17.26-.33.44-.44l.64-1.16c2.28-.26,2.09-.96-.05-1.35l-.59-.99c-6.09-1.22-14.06-.79-20.35-.87-.74,0-1.95.28-2.4-.45,8.95.1,17.89-.21,26.81.53,2.08.32,2.62,3.3,1.41,4.72-.81.95-4.52.21-5.91.43v.02Z"/>
  <path class="cls-12" d="M11.5,12.71c-.14.03-.3-.04-.44,0-1.08,1-1.23,2.46-.44,4.37-1.35.1-2.82-.17-4.14.02-.66.09-1.22.89-1.71.81-1.92-.31-3.59-5.35.09-5.84l6.63.64h0Z"/>
  <path class="cls-7" d="M420.54,12.27c-22.69-.25-45.32-.59-68.03-.87-.74,0-1.95.28-2.4-.45,22.1,1.09,45.75.63,68.03.87.74,0,1.95-.28,2.4.45Z"/>
  <path class="cls-12" d="M11.94,153.57c-.73-.45-.44-1.66-.45-2.4-.27-21.79,0-43.62,0-65.41.72.45.44,1.66.45,2.4.23,21.79,0,43.62,0,65.41Z"/>
  <path class="cls-3" d="M11.06,12.71c-.79,1.44-.54,2.53,0,3.94,1.41.88,2.1,2.53,2.07,4.94.31,2.29.61,6.53-.75,8.18-.73.45-.44,1.66-.45,2.4-.11,9.11,0,18.24,0,27.35-.12.38-.27.38-.44,0v-.44c.38-13.45.23-26.86-.44-40.25-.13-.51-.32-1.37-.44-1.75-.45-1.46-2.32-3.66.44-4.37h0Z"/>
  <path class="cls-11" d="M229.36,361.36c-.38-2.11-.37-4.85,0-7-.32-3.21-.33-6.42,0-9.62.16-6.45.31-13.01.44-19.69-.65-.23-.66-1.09,0-1.31h.44c-.71,8.55-.21,17.84-.46,26.45-.1,3.65.48,7.68-.42,11.17h0Z"/>
  <path class="cls-12" d="M11.5,59.08l-.44-40.25c2.01,8.06.41,30.49.44,40.25Z"/>
  <path class="cls-7" d="M441.98,58.64c.01-10.99-.65-23.07-.02-33.92.07-1.22.33-3.06.89-4.14-1.22,11.36-.31,24.09-.43,35.66,0,.74.28,1.95-.45,2.4h0Z"/>
  <path class="cls-16" d="M95.93,10.96c-5.7,1.01-12.43.4-18.37.44-4.8.38-9.64.36-14.44,0l32.81-.44Z"/>
  <path class="cls-12" d="M11.5,82.7c-.01-7.72.02-15.46,0-23.18h.44c0,6.92.08,13.86,0,20.79,0,.74.28,1.95-.45,2.4h.01Z"/>
  <path class="cls-16" d="M32.5,11.84c.38.12.38.27,0,.44-6.36,0-14.49-.63-20.56.44-.24-1.32.67-.84,1.51-.88,6.24-.25,12.78,0,19.05,0Z"/>
  <path class="cls-13" d="M229.36,361.36c0,3.49,0,7,0,10.5h-.44v-16.19c-.85-.4-.85-.91,0-1.31.12-.38.27-.38.44,0v7Z"/>
  <path class="cls-16" d="M62.25,11.4c.38.12.38.27,0,.44h-16.18c.45-.73,1.66-.44,2.4-.45,4.59-.06,9.2,0,13.79,0h-.01Z"/>
  <path class="cls-3" d="M63.12,11.4c4.81,0,9.63.03,14.44,0-.45.72-1.66.44-2.4.45-4.3.05-8.62,0-12.91,0v-.44h.87Z"/>
  <path class="cls-3" d="M46.06,11.84h1.31c-3.25.81-7.1.43-10.5.44-.38-.12-.38-.27,0-.44h9.19Z"/>
  <path class="cls-16" d="M113.43,9.65c.38.12.38.27,0,.44-2.62,0-5.26-.05-7.87,0h-.44c2.48-.81,5.66-.43,8.31-.44Z"/>
  <path class="cls-12" d="M119.55,9.65h1.31c-2.11.81-5.07.43-7.44.44v-.44h6.13Z"/>
  <path class="cls-3" d="M105.12,10.09h.44c-2.13.99-5.06.19-7.44.44,2.6-.47,4.35-.37,7-.44Z"/>
  <path class="cls-12" d="M36.87,11.84v.44h-4.37v-.44h4.37Z"/>
  <path class="cls-10" d="M399.1,307.99c.06,1.01.15.78-.65.87-7.69.9-15.46.95-23.21.89-15.38-.11-30.91-.75-46.3-1.38l-6.4-1.47c1.14-.64,2.91-.89,4.22-1.04,9.84-1.11,19.03-.66,28.8-.48s20.46-.36,29.76.43c4.44.37,9.12,2.46,13.79,2.18h-.01Z"/>
  <path class="cls-14" d="M448.1,317.18c-2.37.21-2.62-1.06-3.8-1.24-3.58-.53-8.5.35-12.14.39-51.2.48-102.51.13-153.56-.91-5.47-.11-10.98.3-16.42-.2.5-.73,1.19-.63,1.94-.68,8.3-.58,17.83.08,26.29.04,8.78-.04,17.83-.39,26.65-.47,9.66-.09,23.35,1.19,32.41.04,1.99-.25,2.57-2.18,5.36-1.03.56.23.3.94,1.16,1.04,2.06.25,8.52.27,10.55,0,1.44-.19,1.56-1.11,2.61-1.33,3.6-.75,7.42.07,10.95-.43,1.05-.15,1.64-.88,2.6-.94,1.47-.1,3.69,1.29,5.64,1.31,3.49.03,7.96-1.77,11.42-2.14,2.28-.24,4.13.43,6.11.46,8.27.11,17.05.33,24.98-.43,2.3-.22,18.32-.24,19.01.42-.11,1.25.18,2.74,0,3.93-.16,1.1-.68,2.09-1.75,2.19v-.02Z"/>
  <path class="cls-5" d="M224.99,337.3c0-5.68.14-11.52.53-16.98.54-1.52,4.08-1.24,4.06-.38-.18,8.64-.36,17.24-.43,25.89-.02,2.84-.11,5.69-.22,8.53v1.31c-.26,15.45-.43,30.86-.52,46.24-4.72.41-5.24.07-4.36-4.47.4-19.76.72-39.51.94-59.27v-.87Z"/>
  <path class="cls-20" d="M224.99,338.18c-.49,19.75.3,39.56-.42,59.29-.05,1.38-.69,2.72-.46,4.14h3.94l.87-45.93c0,5.39.03,10.8,0,16.19-.03,6.5-.33,13.01-.46,19.45-.07,3.54-.41,7.46.89,10.73-1.13.5-5.74.49-6.1-.7l.86-13.05c-.06-16.71.54-33.39.42-50.11h.46Z"/>
  <path class="cls-20" d="M229.8,323.74c-.02.43,0,.88,0,1.31-.29,6.37-.44,12.94-.44,19.69v9.62h-.44c0-11.37,0-22.76,0-34.12-3.31-.9-3.29,1.93-3.49,4.6-.31,3.99-.34,8.58-.44,12.46.06-4.45-.07-8.91-.02-13.36,0-.91.5-1.83.45-2.59-.06-.84-2.43-4.39-1.29-5.48.26-.25,6.76-.68,7.25-.03.68.91-1.32,4.29-1.54,5.53-.14.78.02,1.59-.03,2.37h0Z"/>
  <path class="cls-6" d="M228.05,462.41v.44c-.12.38-.27.38-.44,0-.22-.46-.42-.92-.57-1.4s-.28-.93-.28-1.39c-.24-14.34.05-28.76.68-42.88.58-3.37-.36-4.85-2.81-4.44l-.93,14.64-.9.46c-.33-.99-.34-2.07,0-3.06,0-2.69-.08-5.41-.02-8.11.07-2.9,2.06-5.05-2.17-5.45-.72-.07-1.47.05-2.19,0-.61-2.99,3.91-3.77,6.13-3.94,3.86-.3,4.86,1.65,6.82,1.76,1.41.08,2.15-1.68,3.46-2.18,2.24,1.49-1.55,5.4-3.03,5.25-.81-.08-1.52-1.39-2.46-.69-1.37,1.03-.77,16.89-.84,19.72-.02,1.04-.45,1.99-.47,3.03-.18,9.4.17,18.83.02,28.23h0Z"/>
  <path class="cls-19" d="M222.8,427.85c.22.41.42.83.57,1.27s.28.86.28,1.28c0,11.18-.02,22.89-1.93,33.5,1.09.38,1.46.98,1.09,1.79.34,0,.86.08.87.3.18,3.07.57,15.08,0,17.34l-.87.52.41-.9c2.97.53,4,0,3.09-1.6-.08-5.35.1-10.74.38-16.1.02-.4.17-.8.32-1.2s.37-.81.6-1.2h.44c-.08,4.37.06,8.76,0,13.12-.39,1.73-.34,3.51,0,5.25-.02.43.04.88,0,1.31-.21,2.03-1.3,2.68-1.31,2.84,0,.83,4.24,1.98,3.49,3.72-1.77.84-3.14-1.09-3.77-1.2-.42-.07-.99.34-1.58.24-.43-.07-.87-.78-1.44-.79-.94-.03-1.12,1.74-3.82,1.23-.91-.17-6.62-3.03-6.88-3.63-1.32-3,4.36,1.36,4.68,1.45,1.4.41,3.43-.09,4.94.09-.97-6.18.75-13.24.03-19.5-.07-.61.05-.63-.46-1.05-.25-.21-.91-.06-1.52-.87-1.44-1.93.43-5.62.64-8.1.25-2.9.22-5.95.44-8.96l.87-20.12c0-1.02,0-2.04,0-3.06h.44c0,1.02.02,2.04,0,3.06v-.03Z"/>
  <path class="cls-15" d="M118.45,519.41c.77-.06,3.2,1.75,3.14,2.72-.05.87-2.8,3.79-3.97,3.73-.92-.05-2.9-1.44-2.9-2.42,0-.61,3.39-4,3.73-4.03h0Z"/>
  <path class="cls-11" d="M195.24,436.6c-.82.99-1.9,1.5-2.4,2.19-.68.95-.49,2.1-1.28,3.09-1.2,1.53-5.38,4.59-7.25,6.53.2-2.6,1.59-2.9,2.87-4.35,1.04-1.18,2.43-3.27,3.49-4.37,1.36-1.42,2.42-2.93,4.58-3.09h-.01Z"/>
  <path class="cls-18" d="M443.73,13.59c.94.19,2.94.35,3.09,1.53.23,1.83-1.84,1.21-3.09,1.97.37-1.18.75-2.39,0-3.5Z"/>
  <path class="cls-17" d="M327.68,524.21c1.62,1.64,2.42,5.86-.96,5.6-.92-.07-3.41-2.78-3.24-3.68.13-.7,3.28-2.84,4.2-1.91h0Z"/>
  <path class="cls-13" d="M229.36,344.74c0-5.75-.08-11.53,0-17.29,0-.74-.28-1.94.45-2.4-.19,5.74.07,11.53,0,17.29,0,.74.28,1.95-.45,2.4Z"/>
  <path class="cls-4" d="M442.42,13.77c-16.98-.46-33.96-1.32-50.99-1.07-13.63-1.82-29.86.75-43.3-.88-1.63-.2-2.1-1.18-3.9-1.35-3.03-.28-5.92.44-8.76.49-33.71.63-67.68.22-101.53,0-2.09-.23-3.94-.25-4.36-2.64-.87,3.96-2.83.04-5.01,2.44-30.22-.33-60.58,1.51-90.82.65-7.81-.22-13.72-.78-21.83-.44-2.01.09-8.55-.46-9.69.39-.49.37-.43,1.26-.83,1.35-.96.21-.55-.59-1.1-1.07-1.69-1.5-3.93.73-5.87.66l-71.79.4c-2.4,1.12-9.73-.32-11.32.84-.61.44-.1,2.33-.25,3.11,1.79,4.61,1.23,8.2,1.31,13.12,1.15,68.26.06,136.68.42,204.97.12,21.62.89,43.46.44,65.18l.43,1.32,105.26-.27c95.34-.07,190.72-.62,286.07.91,11.74.19,23.56.33,35.26.23l.43-1.32c-.3-76.99.22-154.06.87-230.98.14-16.77-1.48-36.07,1.29-52.29v-.03c.24-1.36.78-2.63-.43-3.72ZM433.24,99.56c-1.34,57.36-.41,114.93-1.35,172.32-.11,6.46.76,14.92.04,21.04-.05.44-.2,1.51-.68,1.51H22.65c-.68-.19-1.03-1.28-1.12-1.95-.68-5.03.15-12.58.04-17.98-1.59-81.56-.37-163.34-.91-244.98l.46-6.76c11.82-.9,23.79-.29,35.67-.42,114.7-1.29,229.61-2.06,344.26,0,10.56.19,21.12.16,31.67.48.38.73.46,1.52.52,2.33,1.75,24.03-1.37,50.15,0,74.41Z"/>
  <path class="cls-11" d="M221.49,447.98l.87-20.12c-.08,6.77-.38,13.51-.87,20.12Z"/>
  <path class="cls-11" d="M228.05,481.22c-.75-1.26-.73-4.08,0-5.25-.02,1.74.08,3.51,0,5.25Z"/>
  <path class="cls-9" d="M227.61,462.85c-.08,6.08-.59,12.06-.46,18.17,0,.69.48,1.83.41,2.13-.28,1.2-3.74.53-4.76.69v-18.15c0-.29-1.48-.89-1.78-1.28-1.02-1.36.72-4.64.9-6.6.87-9.58.74-20.29.88-29.96l.94-15.46c.31-1.02,4.04-.62,4.31.81.84,4.49-.64,11.42.02,16.21-.93,11.06-.31,22.32-.46,33.45h0Z"/>
</svg>